<?xml version="1.0" encoding="utf-8"?>
<!-- Generator: Adobe Illustrator 17.0.0, SVG Export Plug-In . SVG Version: 6.00 Build 0)  -->
<!DOCTYPE svg PUBLIC "-//W3C//DTD SVG 1.1//EN" "http://www.w3.org/Graphics/SVG/1.1/DTD/svg11.dtd">
<svg version="1.1" id="Слой_1" xmlns="http://www.w3.org/2000/svg" xmlns:xlink="http://www.w3.org/1999/xlink" x="0px" y="0px"
	 width="35.917px" height="36px" viewBox="0 0 35.917 36" enable-background="new 0 0 35.917 36" xml:space="preserve">
<g>
	<circle fill="#E20A17" cx="17.958" cy="18" r="18"/>
</g>
<path fill="#FEFDFD" d="M19.294,23.199c-0.913,1.318-2.104,2.308-3.549,2.993c-1.166,0.553-2.4,0.861-3.691,0.847
	c-3.568-0.039-6.298-1.602-8.03-4.713c-2.728-4.903-0.212-11.121,5.13-12.847c3.665-1.184,7.692,0.1,9.986,3.186
	c0.051,0.068,0.096,0.141,0.155,0.228c-0.122,0.006-0.158-0.07-0.208-0.115c-1.484-1.352-3.232-1.992-5.236-1.925
	c-3.286,0.109-6.173,2.617-6.746,5.85c-0.579,3.265,0.974,6.353,3.934,7.824c2.604,1.294,5.846,0.814,8.011-1.185
	c0.065-0.06,0.136-0.115,0.205-0.172C19.269,23.179,19.281,23.189,19.294,23.199z"/>
<path fill="#FEFBFB" d="M22.202,13.821c0.351,0.483,0.703,0.966,1.054,1.449c0.238,0.327,0.484,0.649,0.71,0.984
	c0.09,0.134,0.169,0.142,0.312,0.094c0.901-0.3,1.805-0.589,2.708-0.881c0.042-0.013,0.084-0.024,0.145-0.042
	c0.002,0.089-0.054,0.131-0.089,0.179c-0.549,0.758-1.096,1.518-1.654,2.27c-0.099,0.134-0.09,0.219,0.005,0.346
	c0.547,0.741,1.086,1.488,1.627,2.234c0.043,0.059,0.084,0.121,0.159,0.229c-0.454-0.147-0.857-0.277-1.26-0.407
	c-0.541-0.175-1.084-0.34-1.62-0.529c-0.177-0.062-0.261-0.018-0.363,0.126c-0.525,0.739-1.061,1.469-1.595,2.201
	c-0.046,0.063-0.075,0.144-0.184,0.189c0-0.124,0-0.233,0-0.342c0-0.884-0.004-1.769,0.004-2.653
	c0.001-0.162-0.046-0.232-0.204-0.281c-0.947-0.299-1.889-0.61-2.848-0.921c0.063-0.081,0.149-0.085,0.222-0.109
	c0.866-0.284,1.732-0.571,2.602-0.844c0.17-0.053,0.231-0.119,0.229-0.305c-0.011-0.988-0.005-1.976-0.005-2.964
	C22.173,13.833,22.188,13.827,22.202,13.821z"/>
</svg>
