<?xml version="1.0" encoding="utf-8"?>
<!-- Generator: Adobe Illustrator 17.0.0, SVG Export Plug-In . SVG Version: 6.00 Build 0)  -->
<!DOCTYPE svg PUBLIC "-//W3C//DTD SVG 1.1//EN" "http://www.w3.org/Graphics/SVG/1.1/DTD/svg11.dtd">
<svg version="1.1" id="Слой_1" xmlns="http://www.w3.org/2000/svg" xmlns:xlink="http://www.w3.org/1999/xlink" x="0px" y="0px"
	 width="35.917px" height="36px" viewBox="0 0 35.917 36" enable-background="new 0 0 35.917 36" xml:space="preserve">
<g>
	<path fill="#FEFDFC" d="M17.958,11.717V11.53C17.93,11.598,17.932,11.659,17.958,11.717z"/>
	<path fill="#FEFDFC" d="M17.438,18.581c-0.014,0.006-0.028,0.013-0.042,0.019c0.006,0.005,0.011,0.01,0.017,0.015
		C17.433,18.612,17.448,18.606,17.438,18.581z"/>
	<path fill="none" d="M17.958,0v0.038c0.251,0,0.501,0,0.752,0C18.459,0.028,18.212,0,17.958,0z"/>
	<path fill="#DD2910" d="M20.366,7.551c0.027,0,0.054,0.005,0.116,0.012c-0.135,0.093-0.25,0.164-0.357,0.246
		c-0.788,0.609-0.97,1.589-0.366,2.503c0.806,1.219,0.105,3.012-0.833,3.639c-0.128,0.085-0.271,0.148-0.405,0.223
		c-0.213,0.119-0.397,0.255-0.564,0.401v4.833c0.078-0.227,0.12-0.483,0.138-0.873c0.16,0.503,0.174,0.968,0.098,1.427
		c-0.05,0.302-0.139,0.575-0.236,0.841v0.427c0.366-0.749,0.517-1.583,0.383-2.38c-0.005-0.027-0.004-0.056-0.005-0.083
		c0.056-0.025,0.058,0.028,0.068,0.049c0.922,2.002,0.625,3.95-0.445,5.377V36c9.943,0,18-8.057,18-18
		c0-9.689-7.657-17.565-17.248-17.962c-0.251,0-0.501,0-0.752,0v7.886C18.679,7.653,19.484,7.53,20.366,7.551z M18.314,18.684
		c-0.002-0.005-0.006-0.011-0.005-0.016c0.001-0.005,0.007-0.008,0.011-0.012c0.002,0.006,0.003,0.011,0.005,0.016
		C18.321,18.677,18.318,18.681,18.314,18.684z M22.444,27.791c-0.079,0.059-0.15,0.141-0.262,0.143
		c-0.001,0.002-0.001,0.004-0.002,0.006c-0.002,0.001-0.004,0.001-0.006,0.001c-0.002,0.008-0.004,0.016-0.006,0.024
		c-0.016-0.013-0.016-0.018-0.011-0.021c0.004-0.002,0.011-0.003,0.017-0.004c0-0.002,0.001-0.003,0.001-0.005
		c0.002,0,0.004-0.002,0.006-0.002c0.055-0.185,0.125-0.367,0.161-0.556c0.141-0.739-0.125-1.321-0.712-1.771
		c-0.145-0.111-0.301-0.211-0.472-0.274c-0.878-0.322-1.326-1.003-1.54-1.865c-0.167-0.674-0.126-1.324,0.214-1.96
		c0.545-1.021,0.359-2.181-0.419-2.906c-0.238-0.222-0.524-0.362-0.822-0.487c0.613,0.018,1.168,0.218,1.674,0.546
		c1.118,0.725,1.745,1.76,1.909,3.079c0.007,0.058-0.015,0.135,0.09,0.127c0.108-0.009,0.069-0.084,0.064-0.14
		c-0.169-1.799-1.525-3.349-3.259-3.731c-0.106-0.023-0.225,0-0.324-0.079c3.059-0.444,5.547,1.438,6.004,4.329
		C25.113,24.546,24.3,26.396,22.444,27.791z M28.634,16.781c0.036,0.112,0.091,0.22,0.083,0.366
		c-0.088-0.068-0.162-0.127-0.239-0.184c-0.696-0.521-1.484-0.528-2.185-0.012c-0.135,0.099-0.27,0.209-0.375,0.338
		c-0.708,0.867-1.636,1.019-2.667,0.832c-0.547-0.099-1.004-0.355-1.398-0.762c-0.814-0.84-2.036-1.011-2.95-0.448
		c-0.188,0.116-0.349,0.26-0.495,0.423c-0.035,0.039-0.057,0.101-0.15,0.09c0.712-1.609,2.618-2.615,4.535-2.21
		c0.067,0.014,0.15,0.056,0.167-0.051c0.017-0.11-0.086-0.087-0.146-0.1c-1.812-0.407-3.725,0.468-4.609,2.105
		c-0.015,0.028-0.032,0.056-0.058,0.102c-0.048-0.116,0.003-0.199,0.023-0.281c0.445-1.818,1.455-3.177,3.256-3.816
		C24.429,12.11,27.656,13.742,28.634,16.781z"/>
	<polygon fill="#DD2910" points="22.18,27.94 22.175,27.936 22.18,27.94 22.174,27.941 22.174,27.941 22.18,27.94 22.181,27.934 
		22.181,27.934 	"/>
	<path fill="#FEFDFC" d="M18.746,17.918c0.099,0.079,0.219,0.056,0.324,0.079c1.734,0.382,3.09,1.932,3.259,3.731
		c0.005,0.056,0.045,0.131-0.064,0.14c-0.105,0.009-0.083-0.069-0.09-0.127c-0.164-1.319-0.792-2.355-1.909-3.079
		c-0.506-0.328-1.061-0.528-1.674-0.546c0.298,0.125,0.583,0.265,0.822,0.487c0.779,0.725,0.965,1.884,0.419,2.906
		c-0.34,0.636-0.381,1.286-0.214,1.96c0.213,0.862,0.662,1.543,1.54,1.865c0.171,0.063,0.327,0.162,0.472,0.274
		c0.586,0.449,0.853,1.031,0.712,1.771c-0.036,0.189-0.106,0.371-0.161,0.556c0.112-0.002,0.184-0.084,0.262-0.143
		c1.856-1.395,2.67-3.245,2.306-5.543C24.292,19.356,21.805,17.475,18.746,17.918z M22.929,23.295
		c-0.146-0.014-0.294-0.02-0.438-0.045c-0.13-0.023-0.208,0.017-0.27,0.133c-0.065,0.123-0.149,0.236-0.254,0.399
		c-0.038-0.191-0.072-0.333-0.093-0.477c-0.018-0.126-0.074-0.196-0.206-0.217c-0.138-0.022-0.271-0.066-0.418-0.103
		c0.043-0.106,0.145-0.131,0.227-0.164c0.233-0.091,0.34-0.238,0.282-0.495c-0.02-0.09-0.003-0.189-0.003-0.312
		c0.131,0.118,0.251,0.213,0.354,0.323c0.081,0.086,0.154,0.095,0.258,0.045c0.136-0.065,0.28-0.112,0.424-0.168
		c0.006,0.026,0.015,0.043,0.01,0.051c-0.265,0.373-0.259,0.711,0.177,0.994C22.962,23.27,22.945,23.282,22.929,23.295z"/>
	<polygon fill="#FEFDFC" points="22.181,27.934 22.175,27.936 22.18,27.94 	"/>
	<path fill="#FEFDFC" d="M22.181,27.934C22.181,27.934,22.181,27.934,22.181,27.934c0.055-0.185,0.125-0.367,0.161-0.556
		C22.306,27.567,22.236,27.749,22.181,27.934z"/>
	<path fill="#FEFDFC" d="M18.194,19.962c0.076-0.459,0.062-0.924-0.098-1.427c-0.018,0.39-0.06,0.646-0.138,0.873v1.396
		C18.055,20.537,18.144,20.264,18.194,19.962z"/>
	<path fill="#FEFDFC" d="M18.404,18.816c-0.01-0.021-0.011-0.074-0.068-0.049c0.002,0.028,0.001,0.056,0.005,0.083
		c0.134,0.797-0.017,1.631-0.383,2.38v2.963C19.029,22.766,19.326,20.818,18.404,18.816z"/>
	<path fill="#FEFDFC" d="M18.927,13.95c0.938-0.626,1.639-2.42,0.833-3.639c-0.604-0.914-0.422-1.893,0.366-2.503
		c0.106-0.082,0.221-0.153,0.357-0.246c-0.062-0.006-0.089-0.011-0.116-0.012c-0.882-0.021-1.687,0.102-2.408,0.373v3.223
		c0.057-0.02,0.105-0.042,0.167-0.065c-0.014,0.166-0.093,0.288-0.158,0.41c-0.007,0.014-0.004,0.024-0.009,0.038v0.187
		c0.014,0.03,0.02,0.061,0.051,0.091c0.097,0.096,0.175,0.21,0.261,0.317c-0.062,0.053-0.117,0.04-0.156,0.026
		c-0.058-0.021-0.106-0.021-0.156-0.027v2.451c0.167-0.146,0.351-0.281,0.564-0.401C18.656,14.098,18.799,14.036,18.927,13.95z"/>
	<path fill="#FEFDFC" d="M18.172,16.989c-0.02,0.082-0.07,0.165-0.023,0.281c0.026-0.045,0.042-0.073,0.058-0.102
		c0.884-1.637,2.798-2.512,4.609-2.105c0.06,0.013,0.163-0.01,0.146,0.1c-0.017,0.107-0.101,0.065-0.167,0.051
		c-1.917-0.405-3.823,0.601-4.535,2.21c0.093,0.011,0.114-0.051,0.15-0.09c0.147-0.163,0.308-0.307,0.495-0.423
		c0.914-0.563,2.136-0.393,2.95,0.448c0.394,0.407,0.851,0.663,1.398,0.762c1.031,0.186,1.96,0.034,2.667-0.832
		c0.105-0.129,0.24-0.239,0.375-0.338c0.7-0.516,1.488-0.508,2.185,0.012c0.076,0.057,0.151,0.116,0.239,0.184
		c0.008-0.146-0.047-0.254-0.083-0.366c-0.978-3.039-4.205-4.671-7.206-3.608C19.626,13.811,18.617,15.171,18.172,16.989z
		 M23.341,15.472c0.122-0.055,0.161-0.132,0.141-0.262c-0.021-0.138-0.024-0.279-0.036-0.439c0.162,0.063,0.255,0.188,0.358,0.292
		c0.096,0.096,0.177,0.109,0.296,0.051c0.13-0.064,0.27-0.108,0.407-0.161c0.005,0.023,0.014,0.039,0.009,0.045
		c-0.261,0.38-0.263,0.727,0.191,1.017c-0.021,0.008-0.042,0.016-0.063,0.024c-0.15-0.016-0.303-0.021-0.45-0.051
		c-0.128-0.026-0.193,0.023-0.252,0.126c-0.071,0.126-0.156,0.244-0.236,0.367c-0.024-0.021-0.041-0.028-0.041-0.036
		c-0.012-0.454-0.197-0.742-0.742-0.685c0.012-0.025,0.025-0.05,0.037-0.075C23.086,15.613,23.208,15.532,23.341,15.472z"/>
	<path fill="#FEFDFC" d="M18.31,18.669c-0.001,0.005,0.003,0.011,0.005,0.016c0.003-0.004,0.007-0.008,0.011-0.012
		c-0.001-0.005-0.003-0.01-0.005-0.016C18.317,18.661,18.311,18.664,18.31,18.669z"/>
	<path fill="#FEFDFC" d="M22.168,27.965c0.002-0.008,0.004-0.016,0.006-0.024c-0.006,0.001-0.013,0.002-0.017,0.004
		C22.151,27.947,22.152,27.953,22.168,27.965z"/>
	<polygon fill="#FEFDFC" points="22.175,27.936 22.174,27.941 22.18,27.94 	"/>
	<path fill="#FEFDFC" d="M22.157,27.945c0.004-0.002,0.011-0.003,0.017-0.004c0,0,0,0,0,0
		C22.168,27.942,22.161,27.943,22.157,27.945z"/>
	<path fill="#DE2F17" d="M22.801,22.264c0.005-0.007-0.005-0.025-0.01-0.051c-0.143,0.056-0.288,0.103-0.424,0.168
		c-0.105,0.05-0.177,0.041-0.258-0.045c-0.103-0.11-0.223-0.204-0.354-0.323c0,0.123-0.017,0.221,0.003,0.312
		c0.057,0.257-0.049,0.404-0.282,0.495c-0.082,0.032-0.184,0.057-0.227,0.164c0.147,0.037,0.281,0.081,0.418,0.103
		c0.132,0.021,0.188,0.091,0.206,0.217c0.021,0.144,0.055,0.286,0.093,0.477c0.105-0.163,0.189-0.276,0.254-0.399
		c0.062-0.116,0.14-0.156,0.27-0.133c0.144,0.025,0.292,0.031,0.438,0.045c0.016-0.012,0.033-0.025,0.049-0.037
		C22.542,22.975,22.536,22.637,22.801,22.264z"/>
	<path fill="#DE2F17" d="M18.115,12.151c0.039,0.014,0.094,0.027,0.156-0.026c-0.086-0.106-0.165-0.22-0.261-0.317
		c-0.031-0.031-0.037-0.061-0.051-0.091v0.407C18.009,12.13,18.057,12.13,18.115,12.151z"/>
	<path fill="#DE2F17" d="M17.968,11.492c0.065-0.122,0.144-0.245,0.158-0.41c-0.062,0.024-0.11,0.045-0.167,0.065v0.383
		C17.964,11.517,17.96,11.506,17.968,11.492z"/>
	<path fill="#DE2F17" d="M22.922,15.76c0.545-0.057,0.73,0.231,0.742,0.685c0,0.008,0.017,0.015,0.041,0.036
		c0.08-0.123,0.165-0.241,0.236-0.367c0.059-0.104,0.124-0.153,0.252-0.126c0.147,0.03,0.3,0.035,0.45,0.051
		c0.021-0.008,0.042-0.016,0.063-0.024c-0.453-0.29-0.451-0.637-0.191-1.017c0.005-0.007-0.004-0.023-0.009-0.045
		c-0.137,0.053-0.277,0.097-0.407,0.161c-0.119,0.059-0.2,0.046-0.296-0.051c-0.103-0.104-0.196-0.228-0.358-0.292
		c0.012,0.16,0.015,0.301,0.036,0.439c0.02,0.13-0.019,0.207-0.141,0.262c-0.132,0.06-0.255,0.141-0.382,0.213
		C22.947,15.71,22.934,15.735,22.922,15.76z"/>
</g>
<g>
	<path fill="none" d="M17.958,0h-18v0.039C5.694,0.04,11.43,0.04,17.166,0.04C17.431,0.028,17.691,0,17.958,0z"/>
	<g>
	</g>
	<g>
		<path fill="none" d="M15.816,18.517c-0.013,0.016-0.026,0.031-0.04,0.047h0C15.79,18.548,15.803,18.532,15.816,18.517z"/>
	</g>
	<g>
		<path fill="none" d="M17.958,0.04V0c-0.267,0-0.528,0.028-0.792,0.04C17.43,0.04,17.694,0.04,17.958,0.04z"/>
	</g>
	<g>
		<g>
			<path fill="#00785E" d="M14.13,27.377c1.276,0,2.552,0,3.829,0v-0.303c-1.437,0-2.873-0.006-4.31-0.003
				c-0.233,0-0.441-0.041-0.64-0.159c-0.233-0.138-0.481-0.251-0.728-0.435c1.904,0,3.786,0,5.677,0V26.01
				c-1.97,0-3.939-0.009-5.909,0.001c-0.44,0.002-0.744-0.155-1.042-0.473c2.32,0,4.633,0,6.951,0v-0.622
				c-2.497,0-4.994-0.002-7.491,0c-0.219,0-0.288-0.15-0.42-0.296c2.644,0,5.277,0,7.912,0v-1.986
				c-0.035,0.009-0.069,0.015-0.114,0.05c-1.122,0.884-2.403,1.312-3.829,1.313c-1.42,0-2.84-0.004-4.261,0.005
				c-0.19,0.001-0.318-0.048-0.414-0.212c-0.074-0.125-0.168-0.239-0.283-0.4c0.129,0,0.205,0,0.28,0
				c1.526-0.001,3.051,0.01,4.577-0.006c1.5-0.016,2.809-0.55,3.932-1.539c0.044-0.039,0.077-0.05,0.111-0.061v-0.649
				c-0.037,0.013-0.072,0.026-0.121,0.074c-2.381,2.341-6.294,2.273-8.603-0.143c-0.051-0.053-0.12-0.096-0.141-0.194
				c0.208-0.034,0.416-0.059,0.61-0.137c0.087-0.035,0.128,0.028,0.179,0.074c0.902,0.82,1.95,1.339,3.156,1.53
				c0.563,0.089,1.126,0.116,1.693,0.023c-0.322-0.066-0.654-0.017-0.979-0.071c-2.272-0.383-3.867-1.626-4.802-3.728
				c-0.063-0.141-0.007-0.175,0.11-0.217c2.252-0.818,4.399-0.603,6.442,0.649c0.054,0.033,0.108,0.064,0.162,0.096
				c0.016-0.014,0.031-0.028,0.047-0.041c-1.058-0.917-2.284-1.463-3.667-1.658c-0.278-0.039-0.559-0.047-0.839-0.068
				c-0.07-0.005-0.137,0.001-0.179-0.079c-0.108-0.206-0.26-0.381-0.443-0.586c0.387-0.033,0.741-0.01,1.09,0.031
				c1.547,0.177,2.898,0.792,4.052,1.839c0.015,0.014,0.034,0.024,0.052,0.036c0.013-0.016,0.026-0.031,0.04-0.047
				c-0.394-0.669-0.697-1.373-0.835-2.143c-0.253-1.404-0.047-2.736,0.619-3.998c0.016-0.03,0.037-0.058,0.065-0.1
				c0.119,0.334,0.273,0.633,0.505,0.883c0.091,0.099,0.012,0.168-0.02,0.244c-0.704,1.7-0.677,3.386,0.096,5.058
				c0.026,0.057,0.062,0.109,0.093,0.163c0.015-0.012,0.031-0.025,0.046-0.037c-0.348-0.841-0.531-1.715-0.491-2.627
				c0.076-1.702,0.743-3.132,1.988-4.296c0.03-0.028,0.052-0.031,0.076-0.041V9.632c-0.065,0.011-0.131,0.042-0.208,0.106
				c-0.274,0.229-0.576,0.424-0.911,0.666c0.135-0.419,0.245-0.794,0.378-1.16c0.055-0.152,0.036-0.234-0.1-0.326
				c-0.323-0.219-0.633-0.456-0.934-0.727c0.362,0,0.725-0.016,1.085,0.006c0.233,0.014,0.33-0.065,0.387-0.287
				c0.074-0.29,0.18-0.574,0.303-0.858V0.04c-0.264,0-0.528,0-0.792,0C7.594,0.457-0.042,8.325-0.042,18c0,9.943,8.058,18,18,18
				v-7.882C16.683,28.112,15.407,27.867,14.13,27.377z M12.549,9.945c-0.081-0.214-0.138-0.438-0.223-0.713
				c0.244,0.182,0.448,0.324,0.639,0.482c0.11,0.091,0.19,0.102,0.307,0.009c0.195-0.154,0.406-0.288,0.659-0.465
				c-0.097,0.287-0.169,0.519-0.256,0.746c-0.051,0.134-0.05,0.222,0.087,0.311c0.205,0.131,0.391,0.291,0.622,0.466
				c-0.288,0-0.529,0.01-0.769-0.003c-0.149-0.008-0.228,0.029-0.271,0.183c-0.068,0.241-0.162,0.475-0.259,0.75
				c-0.084-0.268-0.172-0.49-0.22-0.721c-0.04-0.194-0.134-0.243-0.317-0.23c-0.223,0.015-0.447,0.004-0.696-0.046
				c0.189-0.133,0.369-0.28,0.569-0.393C12.593,10.222,12.613,10.115,12.549,9.945z M9.687,13.229
				c0.328,0.046,0.327,0.048,0.466-0.248c0.086-0.184,0.173-0.367,0.286-0.607c0.053,0.273,0.108,0.492,0.135,0.714
				c0.025,0.198,0.104,0.29,0.316,0.294c0.223,0.004,0.445,0.05,0.72,0.084c-0.273,0.153-0.501,0.287-0.734,0.408
				c-0.098,0.051-0.125,0.106-0.101,0.215c0.055,0.249,0.096,0.502,0.102,0.777c-0.183-0.17-0.371-0.334-0.546-0.511
				c-0.091-0.092-0.163-0.097-0.271-0.03c-0.214,0.133-0.436,0.253-0.655,0.379L9.401,14.7c0,0,0.008,0.003,0.008,0.003l0,0
				c-0.009-0.044-0.008-0.084,0-0.122c0.008-0.038,0.022-0.074,0.039-0.11c0.034-0.07,0.08-0.136,0.111-0.206
				c0.194-0.438,0.199-0.436-0.154-0.768c-0.102-0.096-0.204-0.192-0.358-0.338C9.299,13.186,9.494,13.202,9.687,13.229z"/>
		</g>
	</g>
	<g>
	</g>
	<g>
		<path fill="none" d="M14.974,22.346c-0.001-0.04-0.035-0.066-0.072-0.052c-0.056,0.021-0.1,0.057-0.166,0.068
			c-0.002,0-0.004,0-0.006,0c0.059,0.012,0.117,0.02,0.175,0.041C14.938,22.416,14.975,22.387,14.974,22.346z"/>
	</g>
	<g>
		<path fill="none" d="M13.915,23.384c-1.526,0.016-3.051,0.005-4.577,0.006c-0.076,0-0.151,0-0.28,0
			c0.115,0.161,0.209,0.274,0.283,0.4c0.096,0.164,0.224,0.213,0.414,0.212c1.42-0.008,2.84-0.004,4.261-0.005
			c1.426,0,2.708-0.428,3.829-1.313c0.045-0.035,0.078-0.042,0.114-0.05v-0.85c-0.034,0.011-0.068,0.022-0.111,0.061
			C16.724,22.834,15.415,23.369,13.915,23.384z"/>
	</g>
	<g>
		<path fill="none" d="M13.009,26.912c0.199,0.118,0.407,0.16,0.64,0.159c1.437-0.003,2.873,0.003,4.31,0.003v-0.597
			c-1.891,0-3.773,0-5.677,0C12.528,26.661,12.776,26.774,13.009,26.912z"/>
	</g>
	<g>
		<path fill="none" d="M12.049,26.01c1.97-0.009,3.939,0,5.909-0.001v-0.473c-2.318,0-4.63,0-6.951,0
			C11.305,25.856,11.609,26.013,12.049,26.01z"/>
	</g>
	<g>
		<path fill="none" d="M10.467,24.916c2.497-0.003,4.994,0,7.491,0V24.62c-2.635,0-5.268,0-7.912,0
			C10.179,24.766,10.248,24.916,10.467,24.916z"/>
	</g>
	<g>
		<path fill="#F4CE18" d="M17.269,8.198c-0.36-0.022-0.723-0.006-1.085-0.006c0.302,0.271,0.612,0.509,0.934,0.727
			c0.136,0.092,0.156,0.174,0.1,0.326c-0.133,0.366-0.243,0.74-0.378,1.16c0.335-0.242,0.637-0.437,0.911-0.666
			c0.077-0.064,0.143-0.095,0.208-0.106v-2.58c-0.122,0.285-0.229,0.568-0.303,0.858C17.599,8.133,17.501,8.212,17.269,8.198z"/>
	</g>
	<g>
		<path fill="none" d="M17.958,28.118v-0.741c-1.276,0-2.552,0-3.829,0C15.407,27.867,16.683,28.112,17.958,28.118z"/>
	</g>
	<g>
		<path fill="#F4CE18" d="M11.853,10.713c0.249,0.05,0.473,0.062,0.696,0.046c0.183-0.013,0.277,0.036,0.317,0.23
			c0.047,0.231,0.136,0.453,0.22,0.721c0.097-0.276,0.191-0.509,0.259-0.75c0.043-0.153,0.122-0.191,0.271-0.183
			c0.24,0.013,0.481,0.003,0.769,0.003c-0.231-0.175-0.418-0.334-0.622-0.466c-0.138-0.088-0.139-0.177-0.087-0.311
			c0.087-0.227,0.159-0.459,0.256-0.746c-0.253,0.177-0.464,0.311-0.659,0.465c-0.117,0.093-0.197,0.082-0.307-0.009
			c-0.191-0.158-0.396-0.3-0.639-0.482c0.085,0.275,0.142,0.499,0.223,0.713c0.064,0.17,0.044,0.278-0.126,0.374
			C12.223,10.432,12.042,10.58,11.853,10.713z"/>
	</g>
	<g>
		<path fill="#F4CE18" d="M9.559,14.265c-0.031,0.07-0.077,0.136-0.111,0.206c-0.017,0.035-0.031,0.071-0.039,0.11
			c-0.008,0.038-0.009,0.079,0,0.122c0,0,0,0,0,0v0h0c0,0-0.003,0.002-0.003,0.002c0.219-0.125,0.441-0.245,0.655-0.379
			c0.108-0.067,0.18-0.062,0.271,0.03c0.175,0.177,0.363,0.342,0.546,0.511c-0.006-0.275-0.047-0.527-0.102-0.777
			c-0.024-0.109,0.003-0.165,0.101-0.215c0.233-0.122,0.461-0.255,0.734-0.408c-0.275-0.034-0.497-0.08-0.72-0.084
			c-0.212-0.004-0.291-0.096-0.316-0.294c-0.028-0.222-0.082-0.441-0.135-0.714c-0.113,0.24-0.2,0.423-0.286,0.607
			c-0.139,0.296-0.138,0.293-0.466,0.248c-0.193-0.027-0.387-0.043-0.641-0.07c0.155,0.146,0.256,0.242,0.358,0.338
			C9.757,13.83,9.753,13.828,9.559,14.265z"/>
	</g>
	<g>
		<polygon fill="none" points="9.409,14.704 9.409,14.704 9.409,14.704 		"/>
	</g>
	<g>
		<polygon fill="none" points="9.409,14.704 9.409,14.704 9.409,14.704 		"/>
	</g>
	<g>
		<polygon fill="none" points="9.401,14.7 9.406,14.706 9.409,14.704 		"/>
	</g>
	<g>
	</g>
	<g>
		<polygon fill="none" points="9.409,14.704 9.406,14.706 9.409,14.704 		"/>
	</g>
	<g>
		<rect x="9.409" y="14.704" fill="none" width="0" height="0"/>
	</g>
	<g>
		<path fill="none" d="M16.385,18.588c-0.015,0.012-0.031,0.025-0.046,0.037c0.06,0.16,0.155,0.3,0.273,0.428
			C16.536,18.898,16.46,18.743,16.385,18.588z"/>
	</g>
	<g>
		<path fill="none" d="M15.77,19.111c-0.02-0.02-0.04-0.041-0.059-0.061c-0.016,0.014-0.031,0.028-0.047,0.041
			c0.026,0.019,0.052,0.038,0.078,0.058C15.751,19.136,15.761,19.124,15.77,19.111z"/>
	</g>
	<g>
		<path fill="none" d="M15.742,19.149L15.742,19.149c-0.026-0.019-0.052-0.038-0.078-0.058C15.69,19.11,15.716,19.13,15.742,19.149
			L15.742,19.149z"/>
	</g>
	<g>
		<path fill="none" d="M15.843,18.617c0.009-0.009,0.019-0.018,0.03-0.027c-0.019-0.025-0.037-0.049-0.056-0.074
			c-0.013,0.016-0.026,0.031-0.04,0.047C15.799,18.581,15.821,18.599,15.843,18.617z"/>
	</g>
	<g>
		<path fill="none" d="M15.793,19.149c-0.008-0.013-0.015-0.025-0.022-0.038c-0.01,0.013-0.019,0.025-0.029,0.038
			C15.759,19.149,15.776,19.149,15.793,19.149z"/>
	</g>
	<g>
		<path fill="none" d="M15.742,19.149c0.01-0.013,0.019-0.025,0.029-0.038C15.761,19.124,15.751,19.136,15.742,19.149L15.742,19.149
			z"/>
	</g>
	<g>
		<path fill="none" d="M15.876,18.648c0.033-0.019,0.008-0.039-0.004-0.058c-0.01,0.008-0.02,0.017-0.03,0.027
			C15.854,18.628,15.872,18.65,15.876,18.648z"/>
	</g>
</g>
</svg>
