<?xml version="1.0" encoding="utf-8"?>
<!-- Generator: Adobe Illustrator 17.0.0, SVG Export Plug-In . SVG Version: 6.00 Build 0)  -->
<!DOCTYPE svg PUBLIC "-//W3C//DTD SVG 1.1//EN" "http://www.w3.org/Graphics/SVG/1.1/DTD/svg11.dtd">
<svg version="1.1" id="Слой_1" xmlns="http://www.w3.org/2000/svg" xmlns:xlink="http://www.w3.org/1999/xlink" x="0px" y="0px"
	 width="35.917px" height="36px" viewBox="0 0 35.917 36" enable-background="new 0 0 35.917 36" xml:space="preserve">
<g>
	<g>
		<g>
			<path fill="#000095" d="M17.958,25.7v-0.893c-3.72-0.041-6.72-3.078-6.688-6.773c0-0.012,0.002-0.023,0.002-0.034h-0.899
				c-0.004,0.474,0.035,0.948,0.12,1.422c0.012,0.067,0.042,0.135-0.007,0.231c-1.945-0.518-3.896-1.038-5.847-1.558
				c-0.003-0.021-0.005-0.041-0.008-0.061C4.673,18.022,4.715,18.011,4.756,18h-4.798c0,9.574,7.477,17.378,16.908,17.945h1.092
				v-4.608c-0.511-1.916-1.022-3.833-1.544-5.792C16.935,25.645,17.446,25.696,17.958,25.7z M10.75,20.455
				c0.338,0.999,0.854,1.902,1.592,2.733c-1.997,0.538-3.959,1.067-5.892,1.588C7.868,23.351,9.3,21.912,10.75,20.455z
				 M11.332,29.51c0.504-1.871,1.025-3.803,1.555-5.772c0.828,0.724,1.731,1.257,2.657,1.563C14.143,26.7,12.723,28.12,11.332,29.51
				z"/>
		</g>
	</g>
	<g>
	</g>
	<g>
		<path fill="none" d="M16.414,25.545c0.522,1.958,1.033,3.875,1.544,5.792V25.7C17.446,25.696,16.935,25.645,16.414,25.545z"/>
	</g>
	<g>
		<path fill="none" d="M4.64,18.095c1.951,0.52,3.901,1.039,5.847,1.558c0.049-0.096,0.019-0.164,0.007-0.231
			c-0.086-0.473-0.124-0.948-0.12-1.422H4.756c-0.042,0.011-0.083,0.022-0.124,0.033C4.634,18.054,4.637,18.074,4.64,18.095z"/>
	</g>
	<g>
	</g>
	<g>
	</g>
</g>
<g>
	<g>
		<g>
			<path fill="#DD2910" d="M27.626,18.2c-0.041,0.385-0.044,0.385,0.308,0.535c0.262,0.112,0.522,0.225,0.78,0.385
				c-0.318,0.074-0.633,0.162-0.954,0.218c-0.189,0.033-0.254,0.12-0.263,0.302c-0.017,0.327-0.055,0.653-0.131,0.989
				c-0.172-0.286-0.355-0.567-0.513-0.861c-0.083-0.155-0.181-0.184-0.339-0.144c-0.324,0.083-0.651,0.152-0.977,0.227
				c-0.009-0.013-0.017-0.027-0.026-0.04c0.21-0.242,0.412-0.492,0.634-0.722c0.138-0.144,0.162-0.257,0.042-0.43
				c-0.14-0.202,1.84-0.43,1.729-0.661h-9.958v1.088c0.009-0.027,0.017-0.052,0.028-0.081c0.073,0.061,0.076,0.132,0.096,0.194
				c0.355,1.088,0.712,2.176,1.06,3.266c0.051,0.16,0.123,0.219,0.296,0.218c1.125-0.008,2.249-0.005,3.374-0.003
				c0.081,0,0.167-0.023,0.262,0.037c-0.085,0.064-0.162,0.123-0.24,0.18c-0.904,0.657-1.806,1.316-2.714,1.967
				c-0.127,0.091-0.144,0.169-0.097,0.311c0.36,1.086,0.711,2.176,1.065,3.264c0.021,0.066,0.039,0.132,0.064,0.217
				c-0.097-0.014-0.149-0.071-0.207-0.113c-0.927-0.672-1.856-1.343-2.779-2.021c-0.078-0.057-0.142-0.065-0.207-0.05v9.472h1.092
				c9.432-0.567,16.908-8.37,16.908-17.945h-8.315C27.637,18.067,27.633,18.134,27.626,18.2z M31.681,27.806
				c-0.415,0.325-0.415,0.325-0.236,0.818c0.08,0.22,0.159,0.441,0.198,0.687c-0.29-0.194-0.585-0.382-0.868-0.585
				c-0.113-0.081-0.186-0.073-0.29,0.013c-0.268,0.222-0.546,0.431-0.861,0.617c0.081-0.288,0.166-0.575,0.244-0.864
				c0.097-0.362,0.14-0.272-0.185-0.497c-0.242-0.167-0.487-0.329-0.731-0.493c0.002-0.03,0.004-0.059,0.006-0.089
				c0.342,0,0.685-0.006,1.027,0.003c0.143,0.004,0.211-0.044,0.248-0.187c0.087-0.339,0.191-0.673,0.307-1.075
				c0.134,0.361,0.261,0.659,0.352,0.968c0.061,0.207,0.159,0.269,0.372,0.253c0.312-0.023,0.628-0.006,0.978-0.006
				C32.047,27.52,31.864,27.663,31.681,27.806z M29.778,22.335c0.174-0.076,0.221-0.175,0.188-0.357
				c-0.058-0.32-0.096-0.644-0.14-0.953c0.261,0.242,0.523,0.472,0.769,0.717c0.097,0.096,0.17,0.11,0.289,0.048
				c0.31-0.161,0.626-0.309,0.975-0.433c-0.154,0.293-0.297,0.592-0.465,0.877c-0.096,0.163-0.08,0.265,0.058,0.394
				c0.239,0.222,0.457,0.467,0.662,0.743c-0.301-0.052-0.604-0.089-0.901-0.159c-0.229-0.055-0.358-0.003-0.455,0.221
				c-0.121,0.28-0.283,0.543-0.472,0.808c-0.048-0.328-0.11-0.656-0.14-0.986c-0.017-0.185-0.096-0.249-0.269-0.273
				c-0.331-0.047-0.66-0.114-1.049-0.183C29.177,22.627,29.472,22.468,29.778,22.335z M28.725,31.648
				c-0.31,0.085-0.619,0.179-0.932,0.25c-0.195,0.044-0.276,0.133-0.272,0.342c0.006,0.32-0.025,0.64-0.083,0.975
				c-0.183-0.278-0.377-0.551-0.547-0.837c-0.094-0.158-0.194-0.182-0.36-0.13c-0.313,0.098-0.633,0.175-0.98,0.223
				c0.194-0.243,0.374-0.498,0.585-0.725c0.157-0.17,0.162-0.299,0.022-0.482c-0.187-0.244-0.343-0.511-0.487-0.814
				c0.177,0.066,0.353,0.136,0.531,0.197c0.205,0.071,0.419,0.246,0.608,0.192c0.189-0.053,0.285-0.311,0.425-0.477
				c0.121-0.144,0.237-0.293,0.355-0.439c0,0.341,0.014,0.673-0.006,1.003c-0.01,0.176,0.031,0.267,0.204,0.324
				c0.319,0.105,0.63,0.233,0.944,0.352C28.731,31.617,28.728,31.632,28.725,31.648z"/>
		</g>
	</g>
	<g>
		<path fill="#FEDC00" d="M18.165,26.522c0.923,0.678,1.851,1.349,2.779,2.021c0.058,0.042,0.11,0.099,0.207,0.113
			c-0.025-0.084-0.043-0.151-0.064-0.217c-0.354-1.088-0.705-2.178-1.065-3.264c-0.047-0.142-0.029-0.22,0.097-0.311
			c0.908-0.651,1.81-1.31,2.714-1.967c0.078-0.057,0.155-0.116,0.24-0.18c-0.095-0.06-0.181-0.037-0.262-0.037
			c-1.125-0.002-2.249-0.005-3.374,0.003c-0.173,0.001-0.245-0.057-0.296-0.218c-0.348-1.09-0.705-2.178-1.06-3.266
			c-0.02-0.062-0.023-0.133-0.096-0.194c-0.01,0.029-0.018,0.054-0.028,0.081v7.384C18.024,26.457,18.087,26.465,18.165,26.522z"/>
	</g>
	<g>
		<path fill="#FEDC00" d="M27.585,30.926c0.019-0.33,0.006-0.662,0.006-1.003c-0.118,0.146-0.234,0.295-0.355,0.439
			c-0.14,0.166-0.236,0.424-0.425,0.477c-0.19,0.053-0.404-0.122-0.608-0.192c-0.179-0.062-0.354-0.131-0.531-0.197
			c0.144,0.302,0.3,0.57,0.487,0.814c0.141,0.183,0.135,0.312-0.022,0.482c-0.211,0.227-0.391,0.482-0.585,0.725
			c0.347-0.049,0.667-0.126,0.98-0.223c0.166-0.052,0.266-0.028,0.36,0.13c0.17,0.287,0.363,0.559,0.547,0.837
			c0.059-0.335,0.089-0.655,0.083-0.975c-0.004-0.209,0.077-0.297,0.272-0.342c0.313-0.072,0.622-0.166,0.932-0.25
			c0.003-0.015,0.006-0.03,0.009-0.046c-0.314-0.119-0.625-0.247-0.944-0.352C27.616,31.193,27.575,31.102,27.585,30.926z"/>
	</g>
	<g>
		<path fill="#FEDC00" d="M26.146,19.09c-0.222,0.231-0.424,0.48-0.634,0.722c0.009,0.013,0.017,0.027,0.026,0.04
			c0.326-0.075,0.653-0.145,0.977-0.227c0.158-0.04,0.256-0.012,0.339,0.144c0.158,0.294,0.34,0.575,0.513,0.861
			c0.076-0.337,0.114-0.662,0.131-0.989c0.01-0.182,0.074-0.269,0.263-0.302c0.321-0.056,0.636-0.143,0.954-0.218
			c-0.257-0.159-0.518-0.273-0.78-0.385c-0.352-0.151-0.349-0.15-0.308-0.535c0.007-0.067,0.011-0.134,0.017-0.2h-0.55
			c-0.034,0.04-0.071,0.078-0.103,0.119c-0.102,0.127-0.189,0.146-0.337,0.077c-0.151-0.071-0.306-0.132-0.46-0.196h-0.366
			c0.111,0.23,0.221,0.459,0.361,0.661C26.308,18.834,26.284,18.947,26.146,19.09z"/>
	</g>
	<g>
		<path fill="#FEDC00" d="M30.146,23.256c0.03,0.33,0.092,0.657,0.14,0.986c0.189-0.265,0.351-0.528,0.472-0.808
			c0.097-0.225,0.226-0.276,0.455-0.221c0.296,0.071,0.6,0.108,0.901,0.159c-0.205-0.277-0.423-0.521-0.662-0.743
			c-0.138-0.129-0.154-0.231-0.058-0.394c0.168-0.284,0.311-0.583,0.465-0.877c-0.349,0.124-0.665,0.272-0.975,0.433
			c-0.119,0.062-0.192,0.049-0.289-0.048c-0.246-0.246-0.508-0.476-0.769-0.717c0.044,0.309,0.082,0.633,0.14,0.953
			c0.033,0.181-0.014,0.281-0.188,0.357c-0.306,0.133-0.6,0.291-0.949,0.464c0.389,0.069,0.718,0.136,1.049,0.183
			C30.05,23.007,30.13,23.071,30.146,23.256z"/>
	</g>
	<g>
		<path fill="#FEDC00" d="M31.263,27.374c-0.213,0.016-0.311-0.046-0.372-0.253c-0.091-0.309-0.219-0.607-0.352-0.968
			c-0.116,0.402-0.221,0.736-0.307,1.075c-0.036,0.143-0.104,0.19-0.248,0.187c-0.342-0.008-0.685-0.003-1.027-0.003
			c-0.002,0.03-0.004,0.059-0.006,0.089c0.244,0.164,0.49,0.325,0.731,0.493c0.325,0.225,0.282,0.135,0.185,0.497
			c-0.077,0.289-0.162,0.576-0.244,0.864c0.315-0.186,0.593-0.395,0.861-0.617c0.104-0.086,0.178-0.093,0.29-0.013
			c0.284,0.203,0.578,0.391,0.868,0.585c-0.04-0.246-0.118-0.467-0.198-0.687c-0.179-0.493-0.179-0.493,0.236-0.818
			c0.183-0.143,0.366-0.286,0.56-0.437C31.89,27.368,31.575,27.351,31.263,27.374z"/>
	</g>
</g>
<g>
	<path fill="#EC2939" d="M18.77,0.041c-0.541,0-1.081,0-1.622,0C7.864,0.455,0.427,7.884,0,17.166c0,0.278,0,0.556,0,0.834h35.958
		C35.958,8.332,28.334,0.469,18.77,0.041z M6.315,13.068C4.45,10.547,4.553,7.1,6.557,4.709c2.087-2.49,5.243-2.847,7.366-2.058
		c-1.675,0.121-3.095,0.749-4.248,1.933c-1.151,1.183-1.761,2.614-1.81,4.262c-0.051,1.72,0.508,3.235,1.671,4.507
		c1.159,1.269,2.617,1.948,4.332,2.094C11.421,16.316,8.224,15.645,6.315,13.068z M12.298,8.265
		c0.104,0.288,0.186,0.585,0.296,0.939c-0.293-0.224-0.539-0.4-0.77-0.594c-0.117-0.098-0.192-0.088-0.303,0.005
		c-0.224,0.187-0.462,0.357-0.734,0.503c0.092-0.3,0.176-0.603,0.279-0.899c0.039-0.114,0.021-0.176-0.075-0.245
		c-0.255-0.184-0.502-0.378-0.799-0.604c0.356,0,0.656-0.007,0.954,0.003c0.135,0.004,0.2-0.037,0.236-0.171
		c0.084-0.309,0.185-0.614,0.293-0.965c0.109,0.349,0.213,0.654,0.296,0.965c0.037,0.137,0.102,0.176,0.237,0.171
		c0.294-0.009,0.588-0.003,0.952-0.003c-0.281,0.214-0.509,0.401-0.751,0.568C12.277,8.028,12.243,8.112,12.298,8.265z
		 M13.659,12.583c0.108,0.279,0.181,0.572,0.283,0.903c-0.276-0.21-0.524-0.383-0.751-0.578c-0.13-0.112-0.213-0.098-0.335,0.004
		c-0.224,0.188-0.462,0.358-0.747,0.576c0.109-0.349,0.189-0.637,0.29-0.918c0.055-0.154,0.044-0.249-0.104-0.347
		c-0.245-0.163-0.472-0.353-0.757-0.569c0.35,0,0.646-0.009,0.941,0.004c0.154,0.007,0.222-0.042,0.261-0.192
		c0.077-0.298,0.176-0.591,0.282-0.942c0.11,0.349,0.213,0.646,0.294,0.95c0.038,0.141,0.097,0.191,0.245,0.184
		c0.294-0.013,0.589-0.004,0.952-0.004c-0.275,0.209-0.498,0.393-0.736,0.553C13.624,12.309,13.59,12.405,13.659,12.583z
		 M15.46,5.949c-0.125-0.095-0.206-0.117-0.336-0.004c-0.225,0.195-0.471,0.366-0.753,0.581c0.112-0.36,0.204-0.668,0.305-0.972
		c0.039-0.117,0.019-0.191-0.084-0.265c-0.25-0.179-0.492-0.37-0.793-0.598c0.366,0,0.67-0.007,0.973,0.003
		c0.128,0.004,0.184-0.036,0.218-0.161c0.085-0.309,0.187-0.613,0.299-0.974c0.109,0.354,0.207,0.65,0.288,0.95
		c0.037,0.136,0.091,0.193,0.243,0.185c0.298-0.015,0.597-0.005,0.956-0.005c-0.28,0.214-0.504,0.401-0.746,0.563
		c-0.151,0.101-0.169,0.199-0.113,0.364c0.093,0.275,0.205,0.545,0.244,0.836c0.002,0.001,0.004,0.003,0.006,0.004l0,0h0
		c0.001,0.002,0.002,0.004,0.004,0.006c0.004,0.001,0.007,0.002,0.01,0.004c0.002,0.001,0,0.009-0.001,0.014
		c-0.003-0.006-0.006-0.011-0.01-0.017c-0.003-0.001-0.005-0.002-0.008-0.003c0-0.003-0.001-0.005-0.002-0.007
		c-0.134-0.058-0.252-0.139-0.364-0.228C15.684,6.134,15.575,6.037,15.46,5.949z M18.194,12.648c0.102,0.258,0.17,0.529,0.267,0.842
		c-0.293-0.225-0.546-0.413-0.792-0.611c-0.092-0.074-0.156-0.079-0.251-0.002c-0.245,0.199-0.499,0.387-0.792,0.611
		c0.11-0.359,0.198-0.672,0.305-0.978c0.044-0.125,0.014-0.188-0.086-0.26c-0.251-0.18-0.493-0.372-0.791-0.598
		c0.368,0,0.675-0.006,0.981,0.003c0.119,0.003,0.173-0.033,0.205-0.15c0.088-0.314,0.19-0.625,0.3-0.982
		c0.108,0.345,0.21,0.643,0.292,0.947c0.037,0.14,0.093,0.193,0.244,0.186c0.294-0.014,0.589-0.004,0.953-0.004
		c-0.258,0.196-0.459,0.376-0.685,0.514C18.136,12.294,18.108,12.431,18.194,12.648z M19.511,8.25
		c0.103,0.296,0.189,0.599,0.299,0.952c-0.294-0.224-0.548-0.409-0.792-0.606c-0.094-0.076-0.156-0.08-0.252-0.001
		c-0.232,0.19-0.475,0.367-0.761,0.585c0.05-0.3,0.144-0.529,0.215-0.764c0.105-0.346,0.106-0.346-0.188-0.57
		c-0.193-0.147-0.386-0.293-0.626-0.476c0.354,0,0.647-0.01,0.939,0.004c0.158,0.007,0.222-0.05,0.261-0.197
		c0.079-0.298,0.177-0.591,0.284-0.942c0.106,0.342,0.206,0.634,0.285,0.932c0.041,0.156,0.11,0.215,0.276,0.207
		c0.286-0.014,0.573-0.004,0.925-0.004c-0.287,0.219-0.522,0.411-0.771,0.583C19.483,8.038,19.465,8.116,19.511,8.25z"/>
	<path fill="#FEFDFD" d="M7.865,8.846c0.049-1.648,0.659-3.079,1.81-4.262c1.153-1.185,2.573-1.812,4.248-1.933
		C11.8,1.862,8.644,2.219,6.557,4.709C4.553,7.1,4.45,10.547,6.315,13.068c1.908,2.578,5.106,3.249,7.551,2.379
		c-1.714-0.146-3.172-0.825-4.332-2.094C8.373,12.081,7.813,10.566,7.865,8.846z"/>
	<path fill="#FEFDFD" d="M13.16,7.37c-0.364,0-0.659-0.006-0.952,0.003c-0.134,0.004-0.2-0.034-0.237-0.171
		c-0.084-0.31-0.187-0.615-0.296-0.965c-0.108,0.351-0.209,0.656-0.293,0.965c-0.036,0.134-0.101,0.176-0.236,0.171
		c-0.299-0.01-0.598-0.003-0.954-0.003c0.297,0.226,0.545,0.421,0.799,0.604c0.096,0.069,0.115,0.131,0.075,0.245
		c-0.102,0.297-0.187,0.599-0.279,0.899c0.273-0.146,0.51-0.317,0.734-0.503c0.111-0.093,0.186-0.103,0.303-0.005
		c0.23,0.194,0.476,0.369,0.77,0.594c-0.11-0.354-0.191-0.651-0.296-0.939c-0.056-0.154-0.022-0.237,0.11-0.327
		C12.65,7.772,12.878,7.585,13.16,7.37z"/>
	<path fill="#FEFDFD" d="M20.376,7.37c-0.352,0-0.639-0.01-0.925,0.004c-0.166,0.008-0.235-0.051-0.276-0.207
		c-0.079-0.298-0.179-0.589-0.285-0.932c-0.107,0.351-0.204,0.644-0.284,0.942c-0.039,0.147-0.103,0.204-0.261,0.197
		C18.055,7.36,17.762,7.37,17.407,7.37c0.24,0.183,0.433,0.329,0.626,0.476c0.294,0.224,0.293,0.223,0.188,0.57
		c-0.071,0.235-0.165,0.464-0.215,0.764c0.285-0.218,0.529-0.395,0.761-0.585c0.096-0.078,0.157-0.075,0.252,0.001
		c0.244,0.197,0.497,0.383,0.792,0.606c-0.11-0.354-0.197-0.656-0.299-0.952c-0.046-0.134-0.028-0.212,0.094-0.296
		C19.854,7.781,20.089,7.59,20.376,7.37z"/>
	<path fill="#FEFDFD" d="M15.917,5.616c-0.056-0.165-0.038-0.263,0.113-0.364c0.242-0.162,0.466-0.35,0.746-0.563
		c-0.359,0-0.659-0.011-0.956,0.005c-0.152,0.008-0.206-0.049-0.243-0.185c-0.081-0.3-0.179-0.596-0.288-0.95
		c-0.112,0.361-0.214,0.665-0.299,0.974c-0.034,0.125-0.09,0.165-0.218,0.161c-0.303-0.01-0.607-0.003-0.973-0.003
		c0.3,0.228,0.542,0.419,0.793,0.598c0.103,0.074,0.123,0.148,0.084,0.265c-0.102,0.304-0.193,0.612-0.305,0.972
		c0.282-0.215,0.528-0.385,0.753-0.581c0.13-0.113,0.211-0.091,0.336,0.004c0.115,0.088,0.224,0.185,0.338,0.275
		c0.112,0.089,0.23,0.169,0.364,0.228C16.122,6.161,16.01,5.891,15.917,5.616z"/>
	<path fill="#FEFDFD" d="M14.514,11.653c-0.364,0-0.659-0.009-0.952,0.004c-0.148,0.007-0.207-0.043-0.245-0.184
		c-0.081-0.303-0.184-0.601-0.294-0.95c-0.107,0.351-0.205,0.644-0.282,0.942c-0.039,0.15-0.108,0.199-0.261,0.192
		c-0.295-0.013-0.591-0.004-0.941-0.004c0.285,0.217,0.512,0.407,0.757,0.569c0.148,0.098,0.159,0.193,0.104,0.347
		c-0.101,0.281-0.181,0.57-0.29,0.918c0.285-0.218,0.523-0.388,0.747-0.576c0.122-0.103,0.206-0.116,0.335-0.004
		c0.227,0.196,0.474,0.368,0.751,0.578c-0.102-0.331-0.174-0.624-0.283-0.903c-0.069-0.178-0.035-0.274,0.119-0.377
		C14.017,12.046,14.239,11.862,14.514,11.653z"/>
	<path fill="#FEFDFD" d="M18.345,12.166c0.226-0.138,0.428-0.318,0.685-0.514c-0.364,0-0.659-0.01-0.953,0.004
		c-0.15,0.007-0.206-0.047-0.244-0.186c-0.082-0.304-0.184-0.602-0.292-0.947c-0.111,0.358-0.213,0.668-0.3,0.982
		c-0.033,0.117-0.086,0.153-0.205,0.15c-0.307-0.009-0.614-0.003-0.981-0.003c0.297,0.226,0.54,0.418,0.791,0.598
		c0.1,0.072,0.13,0.134,0.086,0.26c-0.108,0.306-0.195,0.619-0.305,0.978c0.293-0.225,0.547-0.412,0.792-0.611
		c0.095-0.077,0.159-0.073,0.251,0.002c0.245,0.198,0.499,0.386,0.792,0.611c-0.098-0.314-0.166-0.585-0.267-0.842
		C18.108,12.431,18.136,12.294,18.345,12.166z"/>
</g>
</svg>
