<?xml version="1.0" encoding="utf-8"?>
<!-- Generator: Adobe Illustrator 17.0.0, SVG Export Plug-In . SVG Version: 6.00 Build 0)  -->
<!DOCTYPE svg PUBLIC "-//W3C//DTD SVG 1.1//EN" "http://www.w3.org/Graphics/SVG/1.1/DTD/svg11.dtd">
<svg version="1.1" id="Слой_1" xmlns="http://www.w3.org/2000/svg" xmlns:xlink="http://www.w3.org/1999/xlink" x="0px" y="0px"
	 width="35.917px" height="36px" viewBox="0 0 35.917 36" enable-background="new 0 0 35.917 36" xml:space="preserve">
<g>
	<circle fill="#FFFFFF" cx="17.958" cy="18" r="18"/>
</g>
<g>
	<path fill="#0D5EAF" d="M17.958,0c-0.358,0-0.707,0.033-1.059,0.053c0.704,0,1.408,0,2.112,0C18.661,0.033,18.314,0,17.958,0z"/>
</g>
<g>
	<path fill="#0D5EAF" d="M34.889,24.064c-11.287,0-22.575,0-33.861,0c0.507,1.414,1.167,2.755,1.992,3.979
		c9.959,0,19.919,0,29.878,0C33.723,26.819,34.383,25.478,34.889,24.064z"/>
</g>
<g>
	<path fill="#0D5EAF" d="M29.181,32.061c-7.482,0-14.963,0-22.444,0C9.815,34.521,13.711,36,17.958,36
		C22.206,36,26.103,34.521,29.181,32.061z"/>
</g>
<g>
	<path fill="#0D5EAF" d="M12.281,8.069c2.503-0.019,5.004-0.004,7.508-0.001c0,1.318,0,2.635,0,3.953
		c-0.161,0.006-0.325,0.019-0.486,0.019c-2.339,0.001-4.68,0.013-7.019-0.011c-0.413-0.004-0.491,0.122-0.488,0.506
		c0.018,2.311,0.006,4.62,0.008,6.929c0.001,0.664-0.079,0.579,0.568,0.579c7.82,0.001,15.641,0,23.462,0
		c0.076-0.672,0.124-1.352,0.124-2.044c0-0.654-0.039-1.299-0.107-1.935c-5.172,0.001-10.345-0.003-15.516,0.004
		c-0.435,0-0.554-0.103-0.542-0.538c0.031-1.168,0.005-2.338,0.002-3.504c0.116,0.006,0.234,0.012,0.352,0.012
		c4.927,0,9.853,0,14.78,0c-0.496-1.413-1.151-2.75-1.965-3.976c-4.389,0-8.778-0.001-13.167-0.001
		c0.002-1.138,0.003-2.276,0.009-3.411c0.006-0.692-0.09-0.608,0.588-0.608c2.976,0,5.952,0,8.928-0.001
		c-2.843-2.317-6.411-3.764-10.309-3.99c-0.704,0-1.408,0-2.112,0c-1.782,0.104-3.491,0.464-5.097,1.05
		c0.002,2.154,0.01,4.309-0.006,6.465C11.793,7.95,11.868,8.071,12.281,8.069z"/>
</g>
<g>
	<path fill="#0D5EAF" d="M7.825,7.599C7.816,6.108,7.822,4.617,7.824,3.126c-1.926,1.315-3.581,2.995-4.871,4.94
		c1.468-0.002,2.936-0.008,4.404,0.001C7.731,8.069,7.827,7.974,7.825,7.599z"/>
</g>
<g>
	<path fill="#0D5EAF" d="M7.825,19.577c-0.017-2.355-0.021-4.709,0.003-7.063c0.003-0.42-0.128-0.484-0.505-0.481
		c-2.109,0.008-4.218-0.001-6.328-0.007C0.335,13.898-0.042,15.903-0.042,18c0,0.689,0.047,1.367,0.123,2.036
		c2.428,0.002,4.86-0.002,7.288,0.019C7.759,20.059,7.827,19.935,7.825,19.577z"/>
</g>
<path fill="#0D5EAF" d="M17.958,0.9c9.429,0,17.1,7.671,17.1,17.1s-7.671,17.1-17.1,17.1s-17.1-7.671-17.1-17.1
	S8.529,0.9,17.958,0.9 M17.958,0c-9.942,0-18,8.058-18,18c0,9.943,8.058,18,18,18c9.943,0,18-8.057,18-18
	C35.958,8.058,27.901,0,17.958,0L17.958,0z"/>
</svg>
