<?xml version="1.0" encoding="utf-8"?>
<!-- Generator: Adobe Illustrator 17.0.0, SVG Export Plug-In . SVG Version: 6.00 Build 0)  -->
<svg version="1.2" baseProfile="tiny" id="Слой_1"
	 xmlns="http://www.w3.org/2000/svg" xmlns:xlink="http://www.w3.org/1999/xlink" x="0px" y="0px" width="36.1627769px"
	 height="36.0301895px" viewBox="0 0 36.1627769 36.0301895" overflow="scroll" xml:space="preserve">
<g id="New_Symbol_17">
	<g>
		<path fill="#FCC310" d="M33.6556206,9.184783H2.5117004c-1.5350952,2.6498413-2.4280396,5.7177734-2.4280396,9.0004873
			c0,3.2822876,0.8927002,6.3499146,2.4274292,8.9995117h31.1451416c1.534729-2.6495972,2.4274292-5.7172241,2.4274292-8.9995117
			C36.0836601,14.9025564,35.1907158,11.8346243,33.6556206,9.184783z"/>
		<path fill="#C52126" d="M18.0740166,36.1847839h0.0192871c6.6547852-0.00354,12.4508667-3.6273804,15.5629272-9.0000019H2.51109
			C5.6231503,32.5574036,11.4192324,36.1812439,18.0740166,36.1847839z"/>
		<path fill="#C52126" d="M18.0836601,0.1852708c-6.6583853,0-12.458252,3.6248169-15.5719595,8.9995117h31.1439209
			C30.5419121,3.8100877,24.7420464,0.1852708,18.0836601,0.1852708z"/>
	</g>
</g>
</svg>
