<?xml version="1.0" encoding="utf-8"?>
<!-- Generator: Adobe Illustrator 17.0.0, SVG Export Plug-In . SVG Version: 6.00 Build 0)  -->
<svg version="1.2" baseProfile="tiny" id="Слой_1"
	 xmlns="http://www.w3.org/2000/svg" xmlns:xlink="http://www.w3.org/1999/xlink" x="0px" y="0px" width="35.916748px"
	 height="36px" viewBox="0 0 35.916748 36" overflow="scroll" xml:space="preserve">
<g>
	<path fill="#FFFFFF" d="M11.996666,23.9868774c-0.0707397,0.0656128-0.1452637,0.1281738-0.2145386,0.1967163
		c-1.9983521,1.9987183-3.9966431,3.9973755-5.9949341,5.9960327c3.1167603,3.1115112,7.4161377,5.0386353,12.1575317,5.0386353
		c7.3828125,0,13.6766968-4.6801147,16.1187134-11.2223511c-7.2734985,0-14.5469971,0-21.8208618,0
		C12.1606674,23.9959106,12.0786362,23.9898682,11.996666,23.9868774z"/>
	<polygon fill="#067B3F" points="17.9512558,0.001709 17.9449081,0.0020752 17.9576035,0.0020752 	"/>
	<path fill="#067B3F" d="M34.8730087,23.9959106c-0.2698364,0-0.5397339,0-0.8095703,0
		c-2.4420166,6.5422363-8.7359009,11.2223511-16.1187134,11.2223511c-4.741394,0-9.0407715-1.927124-12.1575317-5.0386353
		c-0.1816406,0.1817017-0.3633423,0.3634033-0.5449829,0.545105c3.1656494,3.1674194,7.5098877,5.1447754,12.3154297,5.2548828
		l0.781311-0.0009155C25.9902573,35.8009644,32.446312,30.8585205,34.8730087,23.9959106z"/>
	<path fill="#010101" d="M11.9601669,11.987854c0.010376,0.010498,0.0230713,0.0179443,0.0358276,0.0268555
		c0.0960693-0.0014038,0.1937256-0.0044556,0.2920532-0.0044556c7.5272217,0,15.0568848,0,22.5856323,0
		C32.4068832,5.0313721,25.7770004,0.0195923,17.9576035,0.0020752c-0.0042114,0-0.0084839,0-0.0126953,0
		c-4.9589233,0.0078125-9.447998,2.0194702-12.6989746,5.2703247C7.4840927,7.5108643,9.7218246,9.749939,11.9601669,11.987854z"/>
	<path fill="#077A3E" d="M12.2880478,12.0102539c-0.0983276,0-0.1959839,0.0030518-0.2920532,0.0044556
		c0.0335083,0.0387573,0.0647583,0.0819702,0.1013184,0.1192627c1.9127197,1.9119873,3.8262329,3.8255005,5.7450562,5.7330933
		c0.1243286,0.1266479,0.0827026,0.1803589-0.0164185,0.2786865c-1.9061279,1.899353-3.8092041,3.8024902-5.7130127,5.7055664
		c-0.0424805,0.041687-0.0775146,0.0908203-0.116272,0.1355591c0.0819702,0.0029907,0.1640015,0.0090332,0.2459106,0.0090332
		c7.2738647,0,14.5473633,0,21.8208618,0c0.2698364,0,0.5397339,0,0.8095703,0
		c0.6638184-1.8773193,1.0437622-3.888855,1.0437622-5.9939575c0-2.1039429-0.3796387-4.1147461-1.0430908-5.9916992
		C27.3449326,12.0102539,19.8152695,12.0102539,12.2880478,12.0102539z"/>
	<path fill="#CD2028" d="M11.7821274,24.1835938c0.0692749-0.0685425,0.1437988-0.1311035,0.2145386-0.1967163
		c0.0387573-0.0447388,0.0737915-0.0938721,0.116272-0.1355591c1.9038086-1.9030762,3.8068848-3.8062134,5.7130127-5.7055664
		c0.0991211-0.0983276,0.1407471-0.1520386,0.0164185-0.2786865c-1.9188232-1.9075928-3.8323364-3.821106-5.7450562-5.7330933
		c-0.0365601-0.0372925-0.0678101-0.0805054-0.1013184-0.1192627c-0.0127563-0.0089111-0.0254517-0.0163574-0.0358276-0.0268555
		C9.7218246,9.749939,7.4840927,7.5108643,5.2459335,5.2723999c-3.2575684,3.2573853-5.2723999,7.7575073-5.2723999,12.7282104
		c0,4.96875,2.0134277,9.467041,5.2686768,12.7241211c0.1816406-0.1817017,0.3633423-0.3634033,0.5449829-0.545105
		C7.7854843,28.1809692,9.7837753,26.182312,11.7821274,24.1835938z"/>
</g>
</svg>
