<?xml version="1.0" encoding="utf-8"?>
<!-- Generator: Adobe Illustrator 17.0.0, SVG Export Plug-In . SVG Version: 6.00 Build 0)  -->
<!DOCTYPE svg PUBLIC "-//W3C//DTD SVG 1.1//EN" "http://www.w3.org/Graphics/SVG/1.1/DTD/svg11.dtd">
<svg version="1.1" id="Слой_1" xmlns="http://www.w3.org/2000/svg" xmlns:xlink="http://www.w3.org/1999/xlink" x="0px" y="0px"
	 width="36px" height="36px" viewBox="-0.042 0 36 36" enable-background="new -0.042 0 36 36" xml:space="preserve">
<g id="italy">
	<g>
		<circle fill="#FFFFFF" cx="17.958" cy="18.018" r="18"/>
	</g>
	<path fill="#009146" d="M8.958,33.59c0-10.382,0-20.764,0-31.146c-5.375,3.113-9,8.913-9,15.573
		C-0.042,24.678,3.583,30.477,8.958,33.59z"/>
	<path fill="#CD2B37" d="M26.962,2.447c0,10.381,0,20.761,0,31.142c5.373-3.114,8.996-8.912,8.996-15.571
		C35.958,11.359,32.336,5.561,26.962,2.447z"/>
	<path fill="#CE2B37" d="M17.958,0.918c9.429,0,17.1,7.671,17.1,17.1s-7.671,17.1-17.1,17.1s-17.1-7.671-17.1-17.1
		S8.529,0.918,17.958,0.918 M17.958,0.018c-9.942,0-18,8.058-18,18c0,9.943,8.058,18,18,18c9.943,0,18-8.057,18-18
		C35.958,8.075,27.901,0.018,17.958,0.018L17.958,0.018z"/>
</g>
</svg>
