<?xml version="1.0" encoding="utf-8"?>
<!-- Generator: Adobe Illustrator 17.0.0, SVG Export Plug-In . SVG Version: 6.00 Build 0)  -->
<svg version="1.2" baseProfile="tiny" id="Слой_1"
	 xmlns="http://www.w3.org/2000/svg" xmlns:xlink="http://www.w3.org/1999/xlink" x="0px" y="0px" width="36.1627769px"
	 height="36.0301895px" viewBox="0 0 36.1627769 36.0301895" overflow="scroll" xml:space="preserve">
<g>
	<path fill="#C8202B" d="M20.7311211,0.3476244c0-0.0077515,0-0.0155029,0-0.0232544
		c-0.3259888-0.0582275-0.6541138-0.1100464-0.9859619-0.1505127c0,0.0078735-0.000061,0.015625-0.000061,0.0234985
		C20.0768242,0.2382494,20.4052544,0.2889085,20.7311211,0.3476244z"/>
	<path fill="#C8202B" d="M34.9816704,13.6363211c0.0020142-0.0013428,0.0040283-0.0026245,0.0060425-0.0039673
		c-0.3654785-1.4536743-0.8894043-2.8438721-1.5842896-4.1328735c-0.0042114,0.0026855-0.0083008,0.0054932-0.0125122,0.0081787
		C34.0884209,10.7947683,34.6137505,12.1841726,34.9816704,13.6363211z"/>
	<path fill="#C8202B" d="M17.9518242,36.0066223c-0.0614624,0-0.1227417,0-0.1842041,0
		c0.0309448,0.0006714,0.0611572,0.0041504,0.0921021,0.0046387C17.890667,36.0107117,17.9209404,36.0072937,17.9518242,36.0066223z
		"/>
	<path fill="#C8202B" d="M35.3950005,15.7985525c0.0012207,0,0.0022583,0,0.003479,0
		c-0.0441284-0.3565674-0.0971069-0.7102051-0.1618042-1.0599976c-0.0012207,0-0.0024414,0-0.0036621,0
		C35.2983208,15.0881643,35.3502617,15.4421072,35.3950005,15.7985525z"/>
	<path fill="#C8202B" d="M18.095623,0.0544115c-0.0811157-0.0024414-0.1605835-0.0108643-0.2419434-0.012207
		c-0.0689697,0.0011597-0.1363525,0.0084229-0.2051392,0.010376c0.0124512,0.000061,0.0244141,0.001709,0.0368652,0.0018311
		C17.8221855,0.0544115,17.9588432,0.0544115,18.095623,0.0544115z"/>
	<path fill="#C8202B" d="M31.7991142,7.0947556c0.0062866-0.0041504,0.0126953-0.0082397,0.0189819-0.0123901
		c-0.2950439-0.3839722-0.6052856-0.7537231-0.9296875-1.1123657c-0.0074463,0.0048828-0.0148926,0.0097046-0.0223389,0.0145874
		C31.1915092,6.3424973,31.5030937,6.7113328,31.7991142,7.0947556z"/>
	<path fill="#FFFFFF" d="M20.7311211,0.3476244c-0.3258667-0.0587158-0.6542969-0.109375-0.9860229-0.1502686
		c0,0.0078735,0,0.0158691,0,0.0237427c0.3318481,0.0404053,0.6599731,0.0921021,0.9860229,0.1502686
		C20.7311211,0.3634935,20.7311211,0.3554979,20.7311211,0.3476244z"/>
	<path fill="#FFFFFF" d="M17.6485405,0.0525804c-0.0123291,0.0003662-0.0244751,0.0014648-0.0368042,0.0018311
		c0.0245972,0,0.0491333,0,0.0736694,0C17.6729546,0.0542894,17.6609917,0.0526414,17.6485405,0.0525804z"/>
	<path fill="#FFFFFF" d="M1.1628845,21.2470989c0.1383057,0,0.2774048,0,0.4142456,0
		c0.0144653,0.0229492,0.0259399,0.0481567,0.0389404,0.0718384c-0.2637939,0.1746826-0.5276489,0.3494873-0.7914429,0.5241699
		c0.3342896,1.4711304,0.8536988,2.8713989,1.5408325,4.1727905c2.3448484-1.5543823,4.6904907-3.1084595,7.0339355-4.6655884
		c0.1390381-0.0913086,0.2735596-0.1040039,0.4241333-0.1040039c1.3527222,0.0015869,2.7039795-0.0014648,4.0537109,0.0054321
		c0.1092529,0.0007324,0.2766113-0.0913696,0.3255615,0.0802002c0.0480957,0.1791992-0.0137939,0.3244629-0.1942139,0.4406128
		c-1.0332642,0.6748047-2.0549927,1.3695679-3.0822144,2.0482178c-2.3305664,1.5424805-4.6633916,3.0806274-6.9938354,4.6221924
		c0.2957761,0.3856812,0.6073606,0.7567749,0.9342039,1.1157227c2.9906616-1.9815674,5.9806523-3.9639893,8.9714966-5.9450684
		c0.1000977-0.0633545,0.1994019-0.2177734,0.3201904-0.1402588c0.1038818,0.0665283,0.0435791,0.2323608,0.0435791,0.3535156
		c0.0021362,3.6772461,0.0016479,7.3551025,0.0021362,11.0333271c0.3515015,0.0697021,0.7109375,0.1156006,1.0697632,0.1634521
		c-0.0004272-4.7922382-0.00354-9.5862446,0.0064697-14.3810444c0.0007324-0.3149414-0.0748901-0.3867798-0.3897705-0.3867798
		c-4.7809448,0.0047607-9.5627441,0.0032349-14.3443604,0.0039673c0.0429688,0.331543,0.0895386,0.6619263,0.1513062,0.9873657
		C0.8526427,21.24716,1.0077941,21.2470989,1.1628845,21.2470989z"/>
	<path fill="#FFFFFF" d="M33.6143608,14.7389822c-0.057373,0-0.1161499-0.008728-0.2835083-0.0186768
		c0.3274536-0.215271,0.62323-0.409668,0.9099731-0.5980225c-0.34552-1.4625854-0.866272-2.8577881-1.5610352-4.1499634
		c-2.3652344,1.5445557-4.7310791,3.0883789-7.0940552,4.6356201c-0.133728,0.0890503-0.2590942,0.1326294-0.4172974,0.1318359
		c-1.3764038-0.0030518-2.7528687,0-4.1293335-0.0056763c-0.1031494-0.0007935-0.2720337,0.0993042-0.3056641-0.1066895
		c-0.0321045-0.1841431,0.0159912-0.3259888,0.1956177-0.4402466c0.7894897-0.5005493,1.5644531-1.0152588,2.3455811-1.5250244
		c2.604187-1.7022095,5.2103271-3.4033813,7.8162231-5.1047978c-0.2978516-0.3824463-0.6126099-0.7493286-0.9411621-1.1049805
		c-3.0559692,1.9955449-6.1119385,3.9916997-9.1679077,5.9861455c-0.0626831,0.0405884-0.1260376,0.079895-0.2506714,0.1578979
		c0-3.8223877,0-7.6020513,0-11.3776855c-0.3252563-0.0612183-0.6551514-0.1083374-0.9865723-0.1508179
		c0.0004272,4.756897,0.0036011,9.5149536-0.0092773,14.2714233c-0.0007935,0.37677,0.0825806,0.4688721,0.4661865,0.4688721
		c4.7815552-0.0070801,9.5640259-0.0075684,14.3466187-0.0090942c-0.0471191-0.3557739-0.093811-0.7116699-0.1624756-1.0603027
		C34.1284599,14.7387991,33.8715019,14.7389822,33.6143608,14.7389822z"/>
	<path fill="#FFFFFF" d="M20.8748589,33.5861511c-0.0038452-0.2514038,0.0718384-0.3106689,0.3156128-0.309082
		c1.4012451,0.0061035,2.8027954,0.0037231,4.2042847,0.0030518c1.6712036-0.8621216,3.1821289-1.9860859,4.4785156-3.3240986
		c-2.8317871,0.0007324-5.6640015-0.0014648-8.4956055,0.0040894c-0.3461304,0.0007935-0.4432983-0.0844116-0.4287109-0.4276123
		c0.0305786-0.6560669,0.0267334-1.3121948,0-1.9668579c-0.0107422-0.2957153,0.0870972-0.3446655,0.357666-0.3438721
		c3.5732422,0.005249,7.145874,0.0042114,10.7178345,0.0040283c0.6481323-1.0162354,1.1868286-2.1047974,1.6114502-3.2507935
		c-4.1343384,0.0009155-8.269104,0-12.4034424,0.0046997c-0.3286133,0.0007935-0.4562378-0.0592041-0.4371338-0.4207153
		c0.0351563-0.6415405,0.0290527-1.2866211,0.0022583-1.9274902c-0.012207-0.3133545,0.0703735-0.3919678,0.3882446-0.3912964
		c4.3693237,0.0115356,8.7371216,0.006897,13.1064453,0.006897c0.0371704,0,0.0744019-0.000061,0.1115723-0.000061
		c0.0614624-0.3239746,0.1077881-0.6528931,0.1506348-0.9829712c-4.7593384-0.0016479-9.5183105-0.003418-14.2781372-0.0082397
		c-0.3156128,0-0.3882446,0.0779419-0.3874512,0.390564c0.0100708,4.7883301,0.0075073,9.5783691,0.0072021,14.3670063
		c0.3291016-0.0452271,0.6594238-0.0865479,0.9823608-0.1501465C20.8791313,34.4374695,20.883709,34.0115662,20.8748589,33.5861511z
		"/>
	<path fill="#FFFFFF" d="M14.3724794,14.4723196c0.0007324,0.3427734-0.0864258,0.4256592-0.428833,0.4256592
		c-4.4163208-0.005127-8.8343506-0.003418-13.2515869-0.0043335c-0.0655518,0.3493042-0.1184082,0.7028198-0.1622925,1.0592041
		c4.8245239,0.0006714,9.6495361-0.0012207,14.473938,0.0043335c0.3424072,0,0.4295044-0.0813599,0.428772-0.4271851
		c-0.0107422-4.8236694-0.0075684-9.6483154-0.0071411-14.4723511c-0.3569336,0.0443115-0.7114258,0.0962524-1.0612793,0.1621704
		C14.3635073,5.6365037,14.3597841,10.0536184,14.3724794,14.4723196z"/>
	<path fill="#C9202A" d="M34.385601,14.7387991c0.0686646,0.3486328,0.1153564,0.7045288,0.1624756,1.0603027
		c0.2822876-0.000061,0.5646362-0.0004272,0.8469238-0.0005493c-0.0447388-0.3564453-0.0966797-0.7103882-0.1619873-1.0599976
		C34.9504814,14.738555,34.6681328,14.7387991,34.385601,14.7387991z"/>
	<path fill="#C9202A" d="M20.8784599,34.8632507c-0.322937,0.0635986-0.6532593,0.1049194-0.9823608,0.1501465
		c0,0.2811279,0.0004272,0.5622559,0.0004272,0.8433838c0.3304443-0.0431519,0.65979-0.0894165,0.984314-0.1502075
		C20.8815117,35.4255066,20.8780327,35.1444397,20.8784599,34.8632507z"/>
	<path fill="#C9202A" d="M29.8732719,29.9560223c-1.2963867,1.3380127-2.807312,2.461977-4.4785156,3.3240986
		c0.5596924-0.0003052,1.1193848,0.0013428,1.6790161,0.0012207c1.4666138-0.9176025,2.788269-2.0377216,3.9312134-3.3258686
		C30.6277275,29.955534,30.2505302,29.9559612,29.8732719,29.9560223z"/>
	<path fill="#C9202A" d="M34.5544853,20.2640667c-0.0428467,0.3300781-0.0891724,0.6589966-0.1506348,0.9829712
		c0.2810669,0,0.5622559-0.0003662,0.8433228-0.0003052c0.0587158-0.3245239,0.1088257-0.6518555,0.1499023-0.9821777
		C35.1162529,20.2644329,34.8353691,20.2641888,34.5544853,20.2640667z"/>
	<path fill="#C9202A" d="M33.6359062,23.9750042c-0.4246216,1.1459961-0.9633179,2.2345581-1.6114502,3.2507935
		c0.3257446-0.000061,0.6516724,0.0004272,0.977356,0.0003662c0.6107178-1.0234375,1.121521-2.1098022,1.5217285-3.2514648
		C34.2277031,23.9747601,33.9318047,23.9749432,33.6359062,23.9750042z"/>
	<path fill="#C9202A" d="M31.7991142,7.0947556c-0.2960205-0.3834229-0.607605-0.7522583-0.9330444-1.1101685
		c-0.2388306,0.1559448-0.4776001,0.3118286-0.7163696,0.4677734c0.3285522,0.3556519,0.6433105,0.7225342,0.9411621,1.1049805
		C31.3270073,7.4031663,31.5629692,7.2489305,31.7991142,7.0947556z"/>
	<path fill="#C9202A" d="M14.3640566,1.2198167c0.3498535-0.065918,0.7043457-0.1178589,1.0612793-0.1621704
		c0-0.2670287-0.0003662-0.5341186-0.0003662-0.8011474c-0.355896,0.0544434-0.7127075,0.1049805-1.0614014,0.1799316
		C14.3635683,0.6974779,14.3641176,0.9587083,14.3640566,1.2198167z"/>
	<path fill="#C9202A" d="M20.7311211,0.371367c-0.3260498-0.0581665-0.6541748-0.1098633-0.9860229-0.1502686
		c0,0.2822876-0.0005493,0.5645142-0.0005493,0.8468017c0.3314209,0.0424805,0.6613159,0.0895996,0.9865723,0.1508179
		C20.7311211,0.9365526,20.7311211,0.6534715,20.7311211,0.371367z"/>
	<path fill="#C9202A" d="M34.845562,13.7251883c0.0453491-0.0296021,0.0907593-0.0592651,0.1361084-0.0888672
		c-0.3679199-1.4521484-0.8932495-2.8415527-1.5907593-4.1286621c-0.2370605,0.1548462-0.473999,0.3098755-0.7111206,0.4646606
		c0.6947632,1.2921753,1.2155151,2.6873779,1.5610352,4.1499634C34.4452934,13.9879446,34.6464043,13.8558035,34.845562,13.7251883z
		"/>
	<path fill="#C9202A" d="M0.5462462,20.2597942c-0.0768433,0-0.1537476,0.000061-0.2305908,0.000061
		c0.0411987,0.3320923,0.0916748,0.6610718,0.1506958,0.9873047c0.0770264,0,0.1541748,0,0.2312012,0
		C0.6357848,20.9217205,0.589215,20.5913372,0.5462462,20.2597942z"/>
	<path fill="#C9202A" d="M3.9325378,28.4429607c-0.0963745,0.0637207-0.1928711,0.1273804-0.2891846,0.1911621
		c0.286377,0.3912354,0.5833738,0.7727051,0.899658,1.1390991c0.1079102-0.0714722,0.2158203-0.1430664,0.3237305-0.2145386
		C4.5398984,29.1997356,4.2283139,28.8286419,3.9325378,28.4429607z"/>
	<path fill="#C9202A" d="M0.6920592,14.8936453c-0.0797119-0.000061-0.1593628-0.0001221-0.2390747-0.0001221
		c-0.0616455,0.3505859-0.1206055,0.7019653-0.1616211,1.0592041c0.0794678,0.000061,0.1589355,0.000061,0.2384033,0.0001221
		C0.573651,15.5964651,0.6265075,15.2429495,0.6920592,14.8936453z"/>
	<path fill="#C9202A" d="M15.2739077,35.0236511c-0.3588257-0.0478516-0.7182617-0.09375-1.0697632-0.1634521
		c0,0.2385254,0.000061,0.4770508,0.0001221,0.7155762c0.3519897,0.0791016,0.7098389,0.1396484,1.0693359,0.1977539
		C15.2736025,35.5236511,15.2739077,35.2735901,15.2739077,35.0236511z"/>
	<path fill="#C9202A" d="M0.8246276,21.8431072c-0.0704956,0.0466919-0.1410522,0.0933838-0.2115479,0.1400757
		c0.3312378,1.4747314,0.8452759,2.8776245,1.513916,4.190918c0.0795288-0.0527344,0.1589355-0.1054688,0.2384644-0.1582031
		C1.6783264,24.7145061,1.1589172,23.3142376,0.8246276,21.8431072z"/>
	<path fill="#C8202A" d="M19.8965263,35.856781c0-0.2811279-0.0004272-0.5622559-0.0004272-0.8433838
		c0.0003052-4.7886372,0.0028687-9.5786762-0.0072021-14.3670063c-0.0007935-0.3126221,0.0718384-0.390564,0.3874512-0.390564
		c4.7598267,0.0048218,9.5187988,0.0065918,14.2781372,0.0082397c0.2808838,0.0001221,0.5617676,0.0003662,0.8425903,0.0004883
		c0.0679321-0.546814,0.1067505-1.1015625,0.1245117-1.6624756v-1.1503906
		c-0.0176392-0.5577393-0.0558472-1.109314-0.1231079-1.6531363c-0.0012207,0-0.0022583,0-0.003479,0
		c-0.2822876,0.0001221-0.5646362,0.0004883-0.8469238,0.0005493c-4.7825928,0.0015259-9.5650635,0.0020142-14.3466187,0.0090942
		c-0.383606,0-0.46698-0.0921021-0.4661865-0.4688721c0.0128784-4.7564697,0.0097046-9.5145264,0.0092773-14.2714233
		c0-0.2822875,0.0005493-0.5645141,0.0005493-0.8468017c0-0.0078735,0-0.0158691,0-0.0237427s0.000061-0.015625,0.000061-0.0234985
		c-0.5426025-0.0661011-1.0931396-0.1027832-1.6495361-0.1194458c-0.1367798,0-0.2734375,0-0.4102173,0
		c-0.0245361,0-0.0490723,0-0.0736694,0c-0.7418213,0.022522-1.4701538,0.0924072-2.1867666,0.2020874
		c0,0.2670288,0.0003662,0.5341187,0.0003662,0.8011474c-0.0004272,4.8240356-0.0036011,9.6486816,0.0071411,14.4723511
		c0.0007324,0.3458252-0.0863647,0.4271851-0.428772,0.4271851c-4.8244019-0.0055542-9.6494141-0.0036621-14.473938-0.0043335
		c-0.0794678-0.000061-0.1589355-0.000061-0.2384033-0.0001221c-0.0783081,0.6815176-0.1286011,1.371398-0.1286011,2.0738516
		c0,0.7579346,0.0619507,1.5,0.1528931,2.2332764c0.0768433,0,0.1537476-0.000061,0.2305908-0.000061
		c4.7816162-0.0007324,9.5634155,0.0007935,14.3443604-0.0039673c0.3148804,0,0.3905029,0.0718384,0.3897705,0.3867798
		c-0.0100098,4.7947998-0.006897,9.5888062-0.0064697,14.3810444c0,0.249939-0.0003052,0.5-0.0003052,0.7498779
		c0.8153067,0.131897,1.6459341,0.2145996,2.4940176,0.2330933c0.0614624,0,0.1227417,0,0.1842041,0
		C18.6099663,35.9920959,19.2576714,35.940094,19.8965263,35.856781z"/>
	<path fill="#282D75" d="M13.9436464,14.8979788c0.3424072,0,0.4295654-0.0828857,0.428833-0.4256592
		c-0.0126953-4.4187012-0.0089722-8.8358154-0.0084229-13.2525024c0.000061-0.2611083-0.0004883-0.5223388-0.0004883-0.7833862
		c-0.996521,0.2142944-1.9592896,0.5157471-2.8870239,0.8875121c0.0791016,0.2265015,0.1612549,0.4552612,0.2331543,0.6808472
		c0.0557861,0.1738892,0.1375732,0.2564087,0.3378296,0.2491455c0.4272461-0.0172119,0.8551636-0.0053101,1.3909302-0.0053101
		c-0.4195557,0.2922974-0.7527466,0.5303955-1.0905151,0.7565918c-0.1720581,0.1157837-0.2163086,0.2174683-0.1177368,0.4310303
		c0.1604614,0.3546143,0.2606201,0.7375488,0.4096069,1.1739502c-0.3851929-0.2675171-0.7229614-0.4887695-1.0454712-0.7294922
		c-0.1826782-0.1345215-0.3110962-0.2056274-0.5288696-0.0114746c-0.3019409,0.2678833-0.6565552,0.4734497-1.074585,0.7669067
		c0.1665649-0.4768677,0.2659912-0.8727417,0.4417725-1.2312012c0.1253662-0.2560425-0.012207-0.3358765-0.1650391-0.437561
		C9.9708071,2.7674851,9.673749,2.567595,9.3888979,2.3169236C8.342145,2.9028611,7.3635678,3.5920091,6.4592099,4.3676438
		c0.0571899,0.0999756,0.1342163,0.1633911,0.2873535,0.1569214c0.4249268-0.0171509,0.8521729-0.0053101,1.3199468-0.0053101
		c-0.3118901,0.3400879-0.7046514,0.5013428-1.028748,0.7554321C6.8727231,5.4034715,6.8283505,5.4997849,6.9238706,5.7107224
		c0.159729,0.354248,0.262207,0.7359619,0.409668,1.1620483c-0.3637695-0.243042-0.696228-0.4073486-0.9560547-0.6534424
		c-0.2828369-0.2709351-0.4815674-0.2162476-0.741394,0.0057373c-0.2651978,0.2247314-0.5625,0.4123535-0.914856,0.5831299
		c0.1300049-0.3683472,0.2293091-0.7516479,0.3981934-1.0993652C5.1379209,5.6709886,5.1423764,5.64218,5.1514096,5.6104417
		c-1.7142942,1.7960205-3.052429,3.9449468-3.9103391,6.3283086c0.0187378,0,0.0337524,0.0028076,0.0540161,0.0018921
		c0.3989258-0.0152588,0.8001709-0.0030518,1.2542114-0.0030518c-0.281311,0.2628784-0.557251,0.4417725-0.8407593,0.6033936
		c-0.3018799,0.171936-0.4799194,0.3530884-0.2736206,0.7363281c0.1605225,0.2973022,0.2369995,0.6378174,0.3713989,1.0264282
		c-0.3920898-0.2717285-0.7334595-0.4993896-1.0626221-0.7416992c-0.1121216,0.4384155-0.2114868,0.8808594-0.2907104,1.3314819
		c0.0797119,0,0.1593628,0.000061,0.2390747,0.0001221C5.1092954,14.8945608,9.5273256,14.8928518,13.9436464,14.8979788z
		 M12.250104,12.6308279c-0.1529541,0.1199341-0.1888428,0.2139282-0.102478,0.4088135
		c0.1589966,0.3573608,0.2652588,0.7371216,0.4195557,1.1850586c-0.4065552-0.2821045-0.7588501-0.5170898-1.1012573-0.7661743
		c-0.1544189-0.1124268-0.2644653-0.1456909-0.4356079-0.0065308c-0.3286743,0.2647705-0.6855469,0.4971313-1.0730591,0.7696533
		c0.0878906-0.4501953,0.2354126-0.8278198,0.395874-1.1930542c0.102417-0.2304688,0.0222168-0.3320923-0.1520386-0.4436646
		c-0.331665-0.211731-0.6610718-0.4321899-0.9760132-0.7230225c0.4448242,0,0.888916-0.0103149,1.3313599,0.0030518
		c0.1680908,0.0046387,0.2262573-0.041626,0.2752075-0.206665c0.1099854-0.3917236,0.2567749-0.7730713,0.40271-1.1995239
		c0.1383667,0.3939819,0.2835083,0.7661743,0.3951416,1.1482544c0.0596313,0.2063599,0.1635742,0.2671509,0.3691406,0.2579346
		c0.4211426-0.0148926,0.84375-0.0030518,1.3083496-0.0030518C12.9692202,12.2027884,12.5764589,12.370513,12.250104,12.6308279z
		 M10.5518618,7.0963426c0.1582031,0.0038452,0.2300415-0.0282593,0.2774048-0.1994629
		c0.1085815-0.3928223,0.2583618-0.7749634,0.4050903-1.2029419c0.1383667,0.3901367,0.2843018,0.7584839,0.3943481,1.1383667
		c0.0588379,0.2052002,0.1544189,0.2724609,0.3630371,0.265564c0.4241943-0.0164185,0.8468018-0.0057373,1.3726196-0.0057373
		c-0.4325562,0.300354-0.7681274,0.539978-1.1081543,0.7669678c-0.159729,0.1096802-0.1956787,0.2097783-0.1108398,0.4073491
		c0.159729,0.3657227,0.2713623,0.7550659,0.421814,1.1934204c-0.3927612-0.272522-0.7329102-0.5009766-1.0637817-0.7474976
		c-0.1742554-0.1283569-0.2980957-0.1807251-0.4975586-0.0083618c-0.312561,0.2644043-0.664917,0.4783936-1.048584,0.7481689
		c0.0871582-0.4486084,0.2377319-0.8208008,0.3944092-1.1879883c0.095459-0.2209473,0.038147-0.3294683-0.1444702-0.4437261
		C9.8708925,7.611052,9.5430727,7.387114,9.2220278,7.0921311C9.6653261,7.0921311,10.107892,7.08676,10.5518618,7.0963426z
		 M5.2241635,10.0467825c0.1589355,0.0022583,0.2567749-0.0091553,0.307251-0.2124634
		c0.0978394-0.3939819,0.2545166-0.7730713,0.3981934-1.1956787c0.140625,0.395874,0.2857666,0.7542725,0.3905029,1.1223755
		c0.0610962,0.2158203,0.1505737,0.2999268,0.3813477,0.2896118c0.4142456-0.0202637,0.8307495-0.006897,1.2893677-0.006897
		c-0.3095093,0.3363037-0.7001343,0.5013428-1.0241089,0.7539673c-0.1589355,0.1264648-0.2185669,0.2158813-0.1192627,0.4333496
		c0.1612549,0.3519287,0.262146,0.7355347,0.4111328,1.1746826c-0.3843994-0.265625-0.7199097-0.4872437-1.0439453-0.7253418
		c-0.1803589-0.1340942-0.3079834-0.2166748-0.5288086-0.0186768c-0.2996216,0.2709351-0.6573486,0.4768677-1.0807495,0.7737427
		c0.1620483-0.4539185,0.2583618-0.824646,0.4241943-1.1608887c0.1459351-0.2949829,0.0213623-0.4122925-0.2025146-0.550293
		c-0.3141479-0.1914063-0.6144409-0.4035034-0.9033811-0.680542C4.3567319,10.0437307,4.7908139,10.0403128,5.2241635,10.0467825z"
		/>
	<path fill="#282D75" d="M10.6084414,2.2501512c0.1627808,0.0022583,0.2544556-0.0160522,0.3049316-0.2151489
		c0.0482178-0.1884155,0.1096191-0.3734741,0.1750488-0.5611572c-0.5436401,0.232666-1.072876,0.4919434-1.5874634,0.7750244
		C9.8705873,2.2479539,10.2396669,2.244597,10.6084414,2.2501512z"/>
	<path fill="#263476" d="M20.7311211,0.371367c0,0.2821045,0,0.5651855,0,0.847351c0,3.7756348,0,7.5552983,0,11.3776855
		c0.1246338-0.0780029,0.1879883-0.1173096,0.2506714-0.1578979c3.0559692-1.9944458,6.1119385-3.9906006,9.1679077-5.9861455
		c0.2387695-0.1559448,0.4775391-0.3118286,0.7163696-0.4677734c0.0074463-0.0048828,0.0148926-0.0097046,0.0223389-0.0145874
		c-2.6176758-2.8939209-6.1533203-4.930481-10.1572876-5.6456299c0,0.0077515,0,0.0155029,0,0.0232544
		C20.7311211,0.3554979,20.7311211,0.3634935,20.7311211,0.371367z"/>
	<path fill="#263476" d="M14.2041445,34.860199c-0.0004883-3.6782246,0-7.356081-0.0021362-11.0333271
		c0-0.1211548,0.0603027-0.2869873-0.0435791-0.3535156c-0.1207886-0.0775146-0.2200928,0.0769043-0.3201904,0.1402588
		c-2.9908447,1.9810791-5.9808354,3.963501-8.9714966,5.9450684c-0.1079102,0.0714722-0.2158203,0.1430664-0.3237305,0.2145386
		c2.475647,2.8676777,5.8350835,4.9427509,9.6612549,5.8025532C14.2042055,35.3372498,14.2041445,35.0987244,14.2041445,34.860199z"
		/>
	<path fill="#C8202B" d="M31.0908623,7.5573411c-2.605896,1.7014165-5.2120361,3.4025884-7.8162231,5.1047978
		c-0.7811279,0.5097656-1.5560913,1.0244751-2.3455811,1.5250244c-0.1796265,0.1142578-0.2277222,0.2561035-0.1956177,0.4402466
		c0.0336304,0.2059937,0.2025146,0.105896,0.3056641,0.1066895c1.3764648,0.0056763,2.7529297,0.0026245,4.1293335,0.0056763
		c0.1582031,0.0007935,0.2835693-0.0427856,0.4172974-0.1318359c2.3629761-1.5472412,4.7288208-3.0910645,7.0940552-4.6356201
		c0.2371216-0.1547852,0.4740601-0.3098145,0.7111206-0.4646606c0.0042114-0.0026855,0.0083008-0.0054932,0.0125122-0.0081787
		c-0.4597168-0.8529053-0.9989624-1.6538701-1.5853271-2.4171147c-0.0062866,0.0041504-0.0126953,0.0082397-0.0189819,0.0123901
		C31.5629692,7.2489305,31.3270073,7.4031663,31.0908623,7.5573411z"/>
	<path fill="#C8202B" d="M10.9263735,23.8207684c1.0272217-0.6786499,2.0489502-1.3734131,3.0822144-2.0482178
		c0.1804199-0.1161499,0.2423096-0.2614136,0.1942139-0.4406128c-0.0489502-0.1715698-0.2163086-0.0794678-0.3255615-0.0802002
		c-1.3497314-0.006897-2.7009888-0.0038452-4.0537109-0.0054321c-0.1505737,0-0.2850952,0.0126953-0.4241333,0.1040039
		c-2.3434453,1.5571289-4.6890874,3.1112061-7.0339355,4.6655884c-0.0795288,0.0527344-0.1589355,0.1054688-0.2384644,0.1582031
		c0.4398193,0.8638306,0.9481812,1.6836548,1.5163574,2.460022c0.0963135-0.0637817,0.1928101-0.1274414,0.2891846-0.1911621
		C6.2629819,26.9013958,8.5958071,25.3632488,10.9263735,23.8207684z"/>
	<path fill="#C7202A" d="M25.3947563,33.2801208c-1.4014893,0.0006714-2.8030396,0.0030518-4.2042847-0.0030518
		c-0.2437744-0.0015869-0.319458,0.0576782-0.3156128,0.309082c0.0088501,0.425415,0.0042725,0.8513184,0.0036011,1.2770996
		c-0.0004272,0.281189,0.0030518,0.5622559,0.0023804,0.8433228c2.2404785-0.4196167,4.3278198-1.2583008,6.1929321-2.4252319
		C26.5141411,33.2814636,25.9544487,33.2798157,25.3947563,33.2801208z"/>
	<path fill="#C7202A" d="M34.4038506,21.2470379c-0.0371704,0-0.0744019,0.000061-0.1115723,0.000061
		c-4.3693237,0-8.7371216,0.0046387-13.1064453-0.006897c-0.3178711-0.0006714-0.4004517,0.0779419-0.3882446,0.3912964
		c0.0267944,0.6408691,0.0328979,1.2859497-0.0022583,1.9274902c-0.019104,0.3615112,0.1085205,0.4215088,0.4371338,0.4207153
		c4.1343384-0.0046997,8.269104-0.0037842,12.4034424-0.0046997c0.2958984-0.000061,0.5917969-0.0002441,0.8876343-0.0003052
		c0.3088989-0.8812256,0.5540161-1.7901611,0.7236328-2.7279663C34.9661064,21.2466717,34.6849174,21.2470379,34.4038506,21.2470379
		z"/>
	<path fill="#C7202A" d="M32.024456,27.2257977c-3.5719604,0.0001831-7.1445923,0.0012207-10.7178345-0.0040283
		c-0.2705688-0.0007935-0.3684082,0.0481567-0.357666,0.3438721c0.0267334,0.6546631,0.0305786,1.310791,0,1.9668579
		c-0.0145874,0.3432007,0.0825806,0.4284058,0.4287109,0.4276123c2.831604-0.0055542,5.6638184-0.0033569,8.4956055-0.0040894
		c0.3772583-0.000061,0.7544556-0.0004883,1.1317139-0.0005493c0.748291-0.8433228,1.4158325-1.7557373,1.9968262-2.7293091
		C32.6761284,27.2262249,32.3502007,27.2257366,32.024456,27.2257977z"/>
	<path fill="#263476" d="M34.845562,13.7251883c-0.1991577,0.1306152-0.4002686,0.2627563-0.6047363,0.3970947
		c-0.2867432,0.1883545-0.5825195,0.3827515-0.9099731,0.5980225c0.1673584,0.0099487,0.2261353,0.0186768,0.2835083,0.0186768
		c0.2571411,0,0.5140991-0.0001831,0.7712402-0.0001831c0.2825317,0,0.5648804-0.0002441,0.8474121-0.0002441
		c0.0012207,0,0.0024414,0,0.0036621,0c-0.0691528-0.3741455-0.1570435-0.7406006-0.2489624-1.1062012
		c-0.0020142,0.0013428-0.0040283,0.0026245-0.0060425,0.0039673C34.9363213,13.6659231,34.8909111,13.6955862,34.845562,13.7251883
		z"/>
	<path fill="#FBFEFF" d="M10.267621,2.9673753c0.152832,0.1016846,0.2904053,0.1815186,0.1650391,0.437561
		c-0.1757813,0.3584595-0.2752075,0.7543335-0.4417725,1.2312012c0.4180298-0.293457,0.772644-0.4990234,1.074585-0.7669067
		c0.2177734-0.1941528,0.3461914-0.1230469,0.5288696,0.0114746c0.3225098,0.2407227,0.6602783,0.4619751,1.0454712,0.7294922
		c-0.1489868-0.4364014-0.2491455-0.8193359-0.4096069-1.1739502c-0.0985718-0.213562-0.0543213-0.3152466,0.1177368-0.4310303
		c0.3377686-0.2261963,0.6709595-0.4642944,1.0905151-0.7565918c-0.5357666,0-0.9636841-0.0119019-1.3909302,0.0053101
		c-0.2002563,0.0072632-0.2820435-0.0752563-0.3378296-0.2491455c-0.0718994-0.2255859-0.1540527-0.4543457-0.2331543-0.6808472
		c-0.1286621,0.0515747-0.2609253,0.095459-0.3881226,0.1499023c-0.0654297,0.1876831-0.1268311,0.3727417-0.1750488,0.5611572
		c-0.0504761,0.1990967-0.1421509,0.2174072-0.3049316,0.2151489c-0.3687744-0.0055542-0.737854-0.0021973-1.1074829-0.0012817
		C9.4625673,2.2699876,9.4271059,2.2955613,9.3888979,2.3169236C9.673749,2.567595,9.9708071,2.7674851,10.267621,2.9673753z"/>
	<path fill="#FBFEFF" d="M1.8063171,14.3037405c-0.1343994-0.3886108-0.2108765-0.729126-0.3713989-1.0264282
		c-0.2062988-0.3832397-0.0282593-0.5643921,0.2736206-0.7363281c0.2835083-0.1616211,0.5594482-0.3405151,0.8407593-0.6033936
		c-0.4540405,0-0.8552856-0.012207-1.2542114,0.0030518c-0.0202637,0.0009155-0.0352783-0.0018921-0.0540161-0.0018921
		c-0.1908569,0.5302734-0.3562012,1.071167-0.4973755,1.623291C1.0728576,13.8043509,1.4142272,14.032012,1.8063171,14.3037405z"/>
	<path fill="#FBFEFF" d="M11.9986391,11.8649588c-0.2055664,0.0092163-0.3095093-0.0515747-0.3691406-0.2579346
		c-0.1116333-0.3820801-0.2567749-0.7542725-0.3951416-1.1482544c-0.1459351,0.4264526-0.2927246,0.8078003-0.40271,1.1995239
		c-0.0489502,0.1650391-0.1071167,0.2113037-0.2752075,0.206665c-0.4424438-0.0133667-0.8865356-0.0030518-1.3313599-0.0030518
		c0.3149414,0.2908325,0.6443481,0.5112915,0.9760132,0.7230225c0.1742554,0.1115723,0.2544556,0.2131958,0.1520386,0.4436646
		c-0.1604614,0.3652344-0.3079834,0.7428589-0.395874,1.1930542c0.3875122-0.272522,0.7443848-0.5048828,1.0730591-0.7696533
		c0.1711426-0.1391602,0.281189-0.105896,0.4356079,0.0065308c0.3424072,0.2490845,0.6947021,0.4840698,1.1012573,0.7661743
		c-0.1542969-0.447937-0.2605591-0.8276978-0.4195557-1.1850586c-0.0863647-0.1948853-0.0504761-0.2888794,0.102478-0.4088135
		c0.326355-0.2603149,0.7191162-0.4280396,1.0568848-0.7689209C12.8423891,11.861907,12.4197817,11.8500662,11.9986391,11.8649588z"
		/>
	<path fill="#FBFEFF" d="M4.8267636,10.7242727c0.223877,0.1380005,0.3484497,0.2553101,0.2025146,0.550293
		c-0.1658325,0.3362427-0.262146,0.7069702-0.4241943,1.1608887c0.4234009-0.296875,0.7811279-0.5028076,1.0807495-0.7737427
		c0.2208252-0.197998,0.3484497-0.1154175,0.5288086,0.0186768c0.3240356,0.2380981,0.6595459,0.4597168,1.0439453,0.7253418
		c-0.1489868-0.4391479-0.2498779-0.8227539-0.4111328-1.1746826c-0.0993042-0.2174683-0.0396729-0.3068848,0.1192627-0.4333496
		c0.3239746-0.2526245,0.7145996-0.4176636,1.0241089-0.7539673c-0.4586182,0-0.8751221-0.0133667-1.2893677,0.006897
		C6.4706845,10.0609426,6.381207,9.9768362,6.3201108,9.7610159c-0.1047363-0.368103-0.2498779-0.7265015-0.3905029-1.1223755
		c-0.1436768,0.4226074-0.300354,0.8016968-0.3981934,1.1956787c-0.0504761,0.2033081-0.1483154,0.2147217-0.307251,0.2124634
		c-0.4333496-0.0064697-0.8674316-0.0030518-1.300781-0.0030518C4.2123227,10.3207693,4.5126157,10.5328665,4.8267636,10.7242727z"
		/>
	<path fill="#FBFEFF" d="M10.2071962,7.8204637c0.1826172,0.1142578,0.2399292,0.2227788,0.1444702,0.4437261
		c-0.1566772,0.3671875-0.307251,0.7393799-0.3944092,1.1879883c0.383667-0.2697754,0.7360229-0.4837646,1.048584-0.7481689
		c0.1994629-0.1723633,0.3233032-0.1199951,0.4975586,0.0083618c0.3308716,0.246521,0.6710205,0.4749756,1.0637817,0.7474976
		c-0.1504517-0.4383545-0.262085-0.8276978-0.421814-1.1934204c-0.0848389-0.1975708-0.0488892-0.2976689,0.1108398-0.4073491
		c0.3400269-0.2269897,0.6755981-0.4666138,1.1081543-0.7669678c-0.5258179,0-0.9484253-0.0106812-1.3726196,0.0057373
		c-0.2086182,0.006897-0.3041992-0.0603638-0.3630371-0.265564c-0.1100464-0.3798828-0.2559814-0.74823-0.3943481-1.1383667
		c-0.1467285,0.4279785-0.2965088,0.8101196-0.4050903,1.2029419c-0.0473633,0.1712036-0.1192017,0.2033081-0.2774048,0.1994629
		C10.107892,7.08676,9.6653261,7.0921311,9.2220278,7.0921311C9.5430727,7.387114,9.8708925,7.611052,10.2071962,7.8204637z"/>
	<path fill="#FBFEFF" d="M5.1194272,5.7088304C4.9505429,6.0565476,4.8512387,6.4398484,4.7212338,6.8081956
		c0.352356-0.1707764,0.6496582-0.3583984,0.914856-0.5831299c0.2598267-0.2219849,0.4585571-0.2766724,0.741394-0.0057373
		C6.6373105,6.4654222,6.969769,6.6297288,7.3335385,6.8727708c-0.1474609-0.4260864-0.249939-0.8078003-0.409668-1.1620483
		c-0.09552-0.2109375-0.0511475-0.307251,0.1138916-0.4360352c0.3240967-0.2540894,0.7168579-0.4153442,1.028748-0.7554321
		c-0.4677739,0-0.89502-0.0118408-1.3199468,0.0053101C6.5934262,4.5310349,6.5163999,4.4676194,6.4592099,4.3676438
		C6.0021176,4.7597337,5.566998,5.1750169,5.1514096,5.6104417C5.1423764,5.64218,5.1379209,5.6709886,5.1194272,5.7088304z"/>
	<path fill="#263476" d="M1.6160705,21.3189373c-0.0130005-0.0236816-0.0244751-0.0488892-0.0389404-0.0718384
		c-0.1368408,0-0.2759399,0-0.4142456,0c-0.1550903,0-0.3102418,0.000061-0.4653321,0.000061c-0.0770264,0-0.1541748,0-0.2312012,0
		c0.0447388,0.2470703,0.092041,0.4924927,0.1467285,0.7360229c0.0704956-0.0466919,0.1410522-0.0933838,0.2115479-0.1400757
		C1.0884216,21.6684246,1.3522766,21.4936199,1.6160705,21.3189373z"/>
</g>
</svg>
