<?xml version="1.0" encoding="utf-8"?>
<!-- Generator: Adobe Illustrator 17.0.0, SVG Export Plug-In . SVG Version: 6.00 Build 0)  -->
<!DOCTYPE svg PUBLIC "-//W3C//DTD SVG 1.1//EN" "http://www.w3.org/Graphics/SVG/1.1/DTD/svg11.dtd">
<svg version="1.1" id="Слой_1" xmlns="http://www.w3.org/2000/svg" xmlns:xlink="http://www.w3.org/1999/xlink" x="0px" y="0px"
	 width="35.917px" height="36px" viewBox="0 0 35.917 36" enable-background="new 0 0 35.917 36" xml:space="preserve">
<path fill="#FFFFFF" d="M17.929,0C8.284,0,0.434,7.608,0,17.147v1.52h35.868c0.009-0.233,0.035-0.461,0.035-0.696
	C35.903,8.047,27.858,0,17.929,0z"/>
<path fill="#11457E" d="M18.69,17.898C14.47,15.086,7.401,10.376,3.258,7.616c-2.071,2.929-3.299,6.495-3.299,10.354
	c0,3.918,1.267,7.532,3.395,10.485c4.203-2.801,11.326-7.547,15.586-10.385C18.856,18.015,18.772,17.954,18.69,17.898z"/>
<path fill="#11457E" d="M17.958,0.9c9.429,0,17.1,7.671,17.1,17.1s-7.671,17.1-17.1,17.1s-17.1-7.671-17.1-17.1
	S8.529,0.9,17.958,0.9 M17.958,0c-9.942,0-18,8.058-18,18c0,9.943,8.058,18,18,18c9.943,0,18-8.057,18-18
	C35.958,8.058,27.901,0,17.958,0L17.958,0z"/>
<path fill="#D6141A" d="M17.929,35.945c9.894,0,17.914-7.992,17.969-17.872c-0.616,0-8.456-0.001-16.959-0.002
	c-4.26,2.838-11.383,7.584-15.586,10.385C6.617,32.985,11.922,35.945,17.929,35.945z"/>
</svg>
