<?xml version="1.0" encoding="utf-8"?>
<!-- Generator: Adobe Illustrator 17.0.0, SVG Export Plug-In . SVG Version: 6.00 Build 0)  -->
<!DOCTYPE svg PUBLIC "-//W3C//DTD SVG 1.1//EN" "http://www.w3.org/Graphics/SVG/1.1/DTD/svg11.dtd">
<svg version="1.1" id="Слой_1" xmlns="http://www.w3.org/2000/svg" xmlns:xlink="http://www.w3.org/1999/xlink" x="0px" y="0px"
	 width="36px" height="36px" viewBox="-0.042 0 36 36" enable-background="new -0.042 0 36 36" xml:space="preserve">
<g>
	<g>
		<circle fill="#FFFFFF" cx="17.958" cy="18" r="18"/>
	</g>
	<path fill="#043BB8" d="M24.594,21.643c-0.636-1.102-1.266-2.209-1.914-3.305c-0.116-0.199-0.115-0.339,0.002-0.535
		c0.634-1.075,1.255-2.157,1.877-3.239c0.065-0.115,0.167-0.217,0.17-0.389c-1.379,0-2.75-0.008-4.121,0.007
		c-0.249,0.002-0.374-0.078-0.494-0.292c-0.415-0.754-0.854-1.496-1.286-2.237c-0.254-0.44-0.509-0.877-0.767-1.319
		c-0.149,0.085-0.182,0.212-0.24,0.314c-0.622,1.068-1.246,2.132-1.85,3.211c-0.132,0.236-0.276,0.326-0.552,0.324
		c-1.358-0.017-2.717-0.008-4.08-0.008c-0.003,0.16,0.09,0.253,0.151,0.357c0.634,1.102,1.265,2.208,1.909,3.305
		c0.103,0.174,0.102,0.294,0,0.467c-0.65,1.11-1.287,2.226-1.926,3.338c-0.053,0.093-0.152,0.173-0.106,0.329
		c0.115,0,0.237,0,0.358,0c1.237,0,2.476,0.009,3.711-0.006c0.26-0.003,0.396,0.078,0.525,0.306c0.666,1.183,1.354,2.355,2.07,3.592
		c0.722-1.249,1.412-2.432,2.089-3.626c0.113-0.199,0.236-0.274,0.466-0.271c1.276,0.012,2.55,0.008,3.825,0.002
		c0.101,0,0.222,0.056,0.318-0.067C24.684,21.816,24.641,21.729,24.594,21.643z M22.62,15.432c-0.27,0.475-0.524,0.919-0.8,1.399
		c-0.271-0.469-0.527-0.907-0.81-1.399C21.567,15.432,22.061,15.432,22.62,15.432z M18.032,12.757
		c0.28,0.483,0.531,0.917,0.812,1.402c-0.568,0-1.061,0-1.622,0C17.496,13.687,17.747,13.253,18.032,12.757z M13.446,15.437
		c0.554,0,1.056,0,1.605,0c-0.273,0.473-0.527,0.913-0.803,1.393C13.974,16.355,13.719,15.912,13.446,15.437z M13.451,20.695
		c0.264-0.462,0.521-0.905,0.795-1.382c0.272,0.468,0.524,0.906,0.799,1.382C14.504,20.695,14.005,20.695,13.451,20.695z
		 M18.034,23.386c-0.278-0.479-0.526-0.908-0.802-1.383c0.544,0,1.041,0,1.599,0C18.563,22.47,18.316,22.898,18.034,23.386z
		 M19.704,20.503c-0.093,0.167-0.199,0.223-0.384,0.223c-0.861-0.006-1.722-0.005-2.584,0c-0.164,0-0.271-0.04-0.359-0.196
		c-0.429-0.758-0.866-1.515-1.309-2.268c-0.077-0.134-0.09-0.233-0.007-0.372c0.444-0.751,0.883-1.504,1.308-2.265
		c0.096-0.173,0.216-0.211,0.394-0.209c0.425,0.008,0.848,0.002,1.273,0.002c0.15,0,0.303,0.028,0.448-0.002
		c0.836-0.17,1.337,0.176,1.654,0.954c0.209,0.516,0.54,0.98,0.831,1.463c0.102,0.166,0.112,0.29,0.006,0.467
		C20.539,19.029,20.116,19.763,19.704,20.503z M21.025,20.691c0.266-0.462,0.517-0.9,0.793-1.376
		c0.271,0.466,0.523,0.902,0.797,1.376C22.081,20.691,21.582,20.691,21.025,20.691z"/>
	<path fill="#0038B8" d="M17.959,0.782c9.493,0,17.217,7.724,17.217,17.218c0,9.494-7.723,17.219-17.217,17.219
		C8.465,35.218,0.741,27.494,0.741,18C0.741,8.506,8.465,0.782,17.959,0.782 M17.959-0.001c-9.941,0-18,8.06-18,18
		c0,9.943,8.059,18.001,18,18.001c9.941,0,18-8.059,18-18.001C35.958,8.059,27.9-0.001,17.959-0.001L17.959-0.001z"/>
	<g>
		<path fill="#0038B8" d="M28.529,3.452c-7.047,0-14.093,0-21.14,0C5.334,4.948,3.608,6.861,2.34,9.077c10.413,0,20.825,0,31.238,0
			C32.309,6.861,30.583,4.948,28.529,3.452z"/>
	</g>
	<g>
		<path fill="#0038B8" d="M33.486,27.074c-10.352,0-20.703,0-31.055,0c1.302,2.223,3.061,4.141,5.157,5.624
			c6.914,0,13.827,0,20.741,0C30.425,31.215,32.184,29.297,33.486,27.074z"/>
	</g>
</g>
</svg>
