<?xml version="1.0" encoding="utf-8"?>
<!-- Generator: Adobe Illustrator 17.0.0, SVG Export Plug-In . SVG Version: 6.00 Build 0)  -->
<!DOCTYPE svg PUBLIC "-//W3C//DTD SVG 1.1//EN" "http://www.w3.org/Graphics/SVG/1.1/DTD/svg11.dtd">
<svg version="1.1" id="Слой_1" xmlns="http://www.w3.org/2000/svg" xmlns:xlink="http://www.w3.org/1999/xlink" x="0px" y="0px"
	 width="35.917px" height="36px" viewBox="0 0 35.917 36" enable-background="new 0 0 35.917 36" xml:space="preserve">
<g id="korea">
	<path fill="#FFFFFF" d="M35.903,17.971c0,9.928-8.045,17.974-17.974,17.974c-9.923,0-17.971-8.046-17.971-17.974
		C-0.042,8.047,8.006,0,17.929,0C27.858,0,35.903,8.047,35.903,17.971z"/>
	<g>
		<path fill="#013477" d="M25.997,22.172c-0.829,1.715-2.13,2.972-3.796,3.858c-1.506,0.802-3.124,1.126-4.823,1.018
			c-3.773-0.241-7.067-2.949-8.051-6.629c-0.556-2.078-0.388-4.107,0.485-6.075c0.038-0.087,0.054-0.196,0.157-0.244
			c0.032,0.104-0.015,0.195-0.041,0.291c-0.164,0.597-0.203,1.209-0.106,1.814c0.306,1.909,1.65,3.34,3.489,3.757
			c1.77,0.401,3.609-0.331,4.693-1.88c1-1.43,2.367-2.092,4.105-2.007c2.145,0.105,4.027,1.998,4.14,4.143
			c0.033,0.617-0.079,1.209-0.189,1.806c0,0,0.002-0.005,0.002-0.005C25.984,22.045,25.995,22.111,25.997,22.172z"/>
		<path fill="#C50C30" d="M26.06,22.023c0.11-0.597,0.222-1.19,0.189-1.806c-0.113-2.145-1.995-4.038-4.14-4.143
			c-1.738-0.085-3.105,0.578-4.105,2.007c-1.084,1.55-2.923,2.281-4.693,1.88c-1.839-0.416-3.183-1.848-3.489-3.757
			c-0.097-0.605-0.058-1.217,0.106-1.814c0.026-0.096,0.073-0.188,0.041-0.291c0.422-1.021,1.096-1.867,1.896-2.603
			c2.059-1.892,4.496-2.672,7.274-2.369c3.899,0.426,7.195,3.637,7.769,7.534c0.26,1.767,0.038,3.46-0.684,5.089
			C26.181,21.846,26.165,21.963,26.06,22.023z"/>
		<path fill="#030303" d="M9.273,6.833C9.222,6.91,9.185,6.968,9.147,7.025C7.57,9.389,5.993,11.753,4.421,14.12
			c-0.098,0.148-0.16,0.189-0.317,0.073c-0.281-0.207-0.573-0.399-0.872-0.579c-0.174-0.105-0.162-0.186-0.057-0.343
			c1.427-2.128,2.846-4.262,4.267-6.394C7.603,6.637,7.77,6.4,7.921,6.154c0.077-0.124,0.134-0.161,0.27-0.063
			c0.307,0.222,0.628,0.424,0.943,0.635C9.181,6.757,9.223,6.795,9.273,6.833z"/>
		<path fill="#030303" d="M9.253,29.253c0.006,0.079-0.054,0.089-0.092,0.115c-0.331,0.223-0.668,0.437-0.993,0.669
			c-0.191,0.137-0.217-0.043-0.276-0.131c-1.144-1.709-2.284-3.421-3.425-5.133c-0.426-0.64-0.843-1.286-1.284-1.916
			c-0.136-0.194-0.105-0.273,0.085-0.382c0.276-0.159,0.547-0.334,0.796-0.531c0.191-0.151,0.268-0.089,0.385,0.086
			c1.44,2.172,2.887,4.339,4.333,6.508c0.133,0.199,0.267,0.398,0.399,0.598C9.208,29.178,9.233,29.221,9.253,29.253z"/>
		<path fill="#030303" d="M7.386,5.608C7.354,5.656,7.322,5.706,7.289,5.755C5.707,8.128,4.124,10.5,2.547,12.876
			c-0.101,0.151-0.166,0.18-0.319,0.068c-0.289-0.212-0.591-0.408-0.894-0.599c-0.126-0.079-0.155-0.134-0.063-0.273
			c1.598-2.386,3.191-4.776,4.78-7.168c0.086-0.13,0.146-0.146,0.272-0.057c0.31,0.218,0.63,0.422,0.944,0.633
			C7.315,5.512,7.377,5.535,7.386,5.608z"/>
		<path fill="#030303" d="M33.652,13.039c-0.106-0.031-0.131-0.127-0.179-0.199c-1.191-1.783-2.38-3.566-3.569-5.35
			c-0.387-0.581-0.768-1.166-1.164-1.74c-0.099-0.144-0.081-0.209,0.06-0.296c0.288-0.179,0.577-0.358,0.845-0.566
			c0.199-0.154,0.278-0.085,0.398,0.095c1.127,1.705,2.264,3.404,3.398,5.105c0.437,0.655,0.871,1.313,1.315,1.964
			c0.094,0.138,0.09,0.207-0.059,0.298c-0.315,0.192-0.617,0.405-0.924,0.609C33.731,12.987,33.69,13.014,33.652,13.039z"/>
		<path fill="#030303" d="M30.262,9.385c-0.002,0.081-0.067,0.1-0.114,0.132c-0.323,0.217-0.65,0.427-0.969,0.65
			c-0.112,0.079-0.164,0.052-0.233-0.052c-0.694-1.047-1.391-2.092-2.092-3.135c-0.075-0.111-0.088-0.175,0.043-0.257
			c0.33-0.206,0.652-0.424,0.97-0.647c0.11-0.077,0.16-0.054,0.229,0.051c0.693,1.048,1.392,2.092,2.089,3.137
			C30.214,9.305,30.239,9.348,30.262,9.385z"/>
		<path fill="#030303" d="M27.986,30.095c-0.022-0.01-0.041-0.016-0.058-0.027c-0.366-0.242-0.731-0.485-1.097-0.726
			c-0.097-0.064-0.031-0.118,0.005-0.172c0.707-1.063,1.416-2.125,2.121-3.19c0.064-0.097,0.115-0.108,0.212-0.041
			c0.329,0.226,0.66,0.448,0.997,0.662c0.123,0.078,0.093,0.145,0.029,0.24c-0.7,1.044-1.397,2.09-2.095,3.135
			C28.069,30.021,28.055,30.088,27.986,30.095z"/>
		<path fill="#030303" d="M7.397,30.533c-0.038,0.03-0.074,0.062-0.114,0.088c-0.332,0.221-0.67,0.435-0.995,0.666
			c-0.122,0.087-0.16,0.037-0.222-0.058c-0.696-1.048-1.393-2.095-2.095-3.138c-0.08-0.119-0.07-0.18,0.051-0.257
			c0.328-0.209,0.649-0.43,0.973-0.646c0.069-0.046,0.124-0.089,0.193,0.016c0.717,1.082,1.438,2.161,2.158,3.24
			C7.362,30.468,7.375,30.494,7.397,30.533z"/>
		<path fill="#030303" d="M32.548,27.292c-0.041-0.026-0.083-0.053-0.124-0.08c-0.315-0.21-0.626-0.428-0.948-0.628
			c-0.126-0.078-0.13-0.131-0.049-0.25c0.696-1.034,1.387-2.072,2.075-3.112c0.079-0.119,0.135-0.171,0.277-0.07
			c0.308,0.221,0.628,0.425,0.946,0.63c0.118,0.076,0.124,0.136,0.042,0.258c-0.697,1.034-1.385,2.073-2.078,3.11
			C32.653,27.203,32.633,27.278,32.548,27.292z"/>
		<path fill="#030303" d="M4.679,26.453c0.016,0.066-0.048,0.078-0.083,0.102c-0.339,0.229-0.683,0.451-1.018,0.685
			c-0.107,0.074-0.149,0.034-0.207-0.053c-0.7-1.056-1.401-2.111-2.109-3.162C1.188,23.916,1.193,23.86,1.3,23.79
			c0.326-0.211,0.652-0.424,0.972-0.646c0.105-0.073,0.164-0.072,0.238,0.04c0.706,1.064,1.416,2.125,2.124,3.187
			C4.65,26.396,4.663,26.424,4.679,26.453z"/>
		<path fill="#030303" d="M30.951,27.131c0.057,0.037,0.107,0.069,0.157,0.103c0.283,0.188,0.559,0.386,0.851,0.559
			c0.187,0.111,0.177,0.198,0.063,0.366c-0.678,1-1.346,2.006-2.008,3.016c-0.102,0.156-0.175,0.189-0.335,0.071
			c-0.289-0.213-0.59-0.411-0.896-0.598c-0.142-0.087-0.133-0.149-0.05-0.273c0.696-1.035,1.386-2.076,2.079-3.113
			C30.847,27.209,30.868,27.131,30.951,27.131z"/>
		<path fill="#030303" d="M31.789,21.835c0.026,0.016,0.06,0.035,0.093,0.056c0.323,0.216,0.642,0.439,0.972,0.644
			c0.135,0.084,0.112,0.148,0.039,0.257c-0.695,1.035-1.387,2.071-2.074,3.111c-0.082,0.125-0.14,0.159-0.275,0.062
			c-0.307-0.221-0.622-0.432-0.944-0.632c-0.132-0.082-0.118-0.142-0.043-0.253c0.695-1.034,1.385-2.072,2.078-3.108
			C31.672,21.918,31.69,21.839,31.789,21.835z"/>
		<path fill="#030303" d="M31.783,14.281c-0.079,0.008-0.098-0.061-0.129-0.107c-0.704-1.053-1.405-2.108-2.111-3.159
			c-0.075-0.111-0.056-0.163,0.051-0.231c0.328-0.209,0.651-0.425,0.971-0.647c0.105-0.073,0.161-0.069,0.235,0.042
			c0.698,1.057,1.402,2.11,2.104,3.164c0.045,0.067,0.106,0.127,0.002,0.196c-0.357,0.237-0.713,0.476-1.07,0.714
			C31.819,14.263,31.801,14.271,31.783,14.281z"/>
		<path fill="#C50C30" d="M25.997,22.172c-0.002-0.061-0.013-0.127,0.065-0.154C26.071,22.083,26.052,22.135,25.997,22.172z"/>
	</g>
	<g>
		<path d="M17.958,0.9c9.429,0,17.1,7.671,17.1,17.1s-7.671,17.1-17.1,17.1s-17.1-7.671-17.1-17.1S8.529,0.9,17.958,0.9 M17.958,0
			c-9.942,0-18,8.058-18,18c0,9.943,8.058,18,18,18c9.943,0,18-8.057,18-18C35.958,8.058,27.901,0,17.958,0L17.958,0z"/>
	</g>
</g>
</svg>
