<?xml version="1.0" encoding="utf-8"?>
<!-- Generator: Adobe Illustrator 17.0.0, SVG Export Plug-In . SVG Version: 6.00 Build 0)  -->
<!DOCTYPE svg PUBLIC "-//W3C//DTD SVG 1.1//EN" "http://www.w3.org/Graphics/SVG/1.1/DTD/svg11.dtd">
<svg version="1.1" id="Слой_1" xmlns="http://www.w3.org/2000/svg" xmlns:xlink="http://www.w3.org/1999/xlink" x="0px" y="0px"
	 width="36px" height="36px" viewBox="-0.042 0 36 36" enable-background="new -0.042 0 36 36" xml:space="preserve">
<g id="russia">
	<g>
		<circle fill="#FFFFFF" cx="17.958" cy="18.002" r="18"/>
	</g>
	<g>
		<path fill="#0039A6" d="M17.958,0.803c9.483,0,17.197,7.716,17.197,17.199c0,9.482-7.715,17.195-17.197,17.195
			c-9.483,0-17.198-7.714-17.198-17.195C0.761,8.518,8.476,0.803,17.958,0.803 M17.958,0c-9.942,0-18,8.062-18,18.002
			c0,9.943,8.058,17.998,18,17.998c9.941,0,18-8.055,18-17.998C35.958,8.062,27.9,0,17.958,0L17.958,0z"/>
	</g>
	<path fill="#D42B1E" d="M35.036,23.663c-11.385,0-22.771,0-34.156,0c2.267,6.84,8.519,11.842,16.01,12.283c0.712,0,1.424,0,2.136,0
		C26.517,35.506,32.77,30.503,35.036,23.663z"/>
	<g>
		<path fill="#0039A6" d="M34.686,11.385c-11.152,0-22.304,0-33.456,0c-0.48,1.213-0.825,2.492-1.033,3.818c0,1.867,0,3.733,0,5.6
			c0.154,0.982,0.377,1.939,0.683,2.861c11.385,0,22.77,0,34.156,0c0.59-1.782,0.922-3.681,0.922-5.661
			C35.958,15.663,35.498,13.435,34.686,11.385z"/>
	</g>
</g>
</svg>
