<?xml version="1.0" encoding="utf-8"?>
<!-- Generator: Adobe Illustrator 17.0.0, SVG Export Plug-In . SVG Version: 6.00 Build 0)  -->
<!DOCTYPE svg PUBLIC "-//W3C//DTD SVG 1.1//EN" "http://www.w3.org/Graphics/SVG/1.1/DTD/svg11.dtd">
<svg version="1.1" id="Слой_1" xmlns="http://www.w3.org/2000/svg" xmlns:xlink="http://www.w3.org/1999/xlink" x="0px" y="0px"
	 width="35.917px" height="36px" viewBox="0 0 35.917 36" enable-background="new 0 0 35.917 36" xml:space="preserve">
<g>
	<circle fill="#FFFFFF" cx="17.958" cy="18" r="18"/>
</g>
<path fill="#BB002D" d="M28.818,18.058c0.001,5.964-4.853,10.812-10.814,10.801c-5.957-0.011-10.785-4.845-10.785-10.8
	c0-5.967,4.849-10.81,10.814-10.8C23.989,7.27,28.817,12.104,28.818,18.058z"/>
<path fill="#BC002D" d="M17.958,0.9c9.429,0,17.1,7.671,17.1,17.1s-7.671,17.1-17.1,17.1s-17.1-7.671-17.1-17.1
	S8.529,0.9,17.958,0.9 M17.958,0c-9.942,0-18,8.058-18,18c0,9.943,8.058,18,18,18c9.943,0,18-8.057,18-18
	C35.958,8.058,27.901,0,17.958,0L17.958,0z"/>
</svg>
