<?xml version="1.0" encoding="utf-8"?>
<!-- Generator: Adobe Illustrator 17.0.0, SVG Export Plug-In . SVG Version: 6.00 Build 0)  -->
<!DOCTYPE svg PUBLIC "-//W3C//DTD SVG 1.1//EN" "http://www.w3.org/Graphics/SVG/1.1/DTD/svg11.dtd">
<svg version="1.1" id="Слой_1" xmlns="http://www.w3.org/2000/svg" xmlns:xlink="http://www.w3.org/1999/xlink" x="0px" y="0px"
	 width="36px" height="36px" viewBox="-0.042 0 36 36" enable-background="new -0.042 0 36 36" xml:space="preserve">
<g>
	<path d="M34.925,12.035C32.525,5.211,26.141,0.28,18.557,0.03c-0.399,0-0.798,0-1.196,0C9.776,0.28,3.392,5.211,0.992,12.035
		C12.303,12.035,23.615,12.035,34.925,12.035z"/>
	<path fill="#DC0000" d="M0.992,12.035c-0.652,1.855-1.026,3.842-1.031,5.919c0,0.031,0,0.061,0,0.092
		c0.005,2.104,0.388,4.114,1.057,5.99c11.294,0,22.588,0,33.881,0c0.665-1.865,1.046-3.864,1.055-5.955c0-0.054,0-0.108,0-0.162
		c-0.009-2.064-0.38-4.039-1.029-5.884C23.615,12.035,12.303,12.035,0.992,12.035z"/>
	<path fill="#FECD00" d="M1.018,24.036C3.501,31.003,10.138,36,17.958,36s14.457-4.997,16.941-11.964
		C23.606,24.036,12.312,24.036,1.018,24.036z"/>
</g>
</svg>
