<?xml version="1.0" encoding="utf-8"?>
<!-- Generator: Adobe Illustrator 17.0.0, SVG Export Plug-In . SVG Version: 6.00 Build 0)  -->
<!DOCTYPE svg PUBLIC "-//W3C//DTD SVG 1.1//EN" "http://www.w3.org/Graphics/SVG/1.1/DTD/svg11.dtd">
<svg version="1.1" id="Слой_1" xmlns="http://www.w3.org/2000/svg" xmlns:xlink="http://www.w3.org/1999/xlink" x="0px" y="0px"
	 width="35.917px" height="36px" viewBox="0 0 35.917 36" enable-background="new 0 0 35.917 36" xml:space="preserve">
<g>
	<path fill="#DC143C" d="M35.927,18.598c0-0.104,0-0.209,0-0.313c0-0.293,0-0.293-0.185-0.293c-11.927,0-23.854,0-35.781,0
		c0-0.02,0-0.039,0-0.059c0,0.017-0.003,0.033-0.003,0.049c0,9.819,7.861,17.783,17.631,17.981c0.245,0,0.491,0,0.736,0
		C27.89,35.771,35.604,28.131,35.927,18.598z"/>
</g>
<g>
	<path fill="#FFFFFF" d="M18.661,0.018c-0.468,0-0.937,0-1.405,0C7.658,0.389-0.013,8.251-0.039,17.933c0,0.02,0,0.039,0,0.059
		c11.927,0,23.854,0,35.781,0c0.185,0,0.185,0,0.185,0.293c0,0.104,0,0.209,0,0.313c0.007-0.206,0.031-0.406,0.031-0.614
		c0-0.001,0-0.002,0-0.004C35.957,8.276,28.275,0.39,18.661,0.018z"/>
</g>
<g>
	<path fill="#DC143C" d="M17.958,0.882c9.429,0,17.1,7.671,17.1,17.1s-7.671,17.1-17.1,17.1s-17.1-7.671-17.1-17.1
		S8.529,0.882,17.958,0.882 M17.958-0.018c-9.942,0-18,8.058-18,18c0,9.943,8.058,18,18,18c9.943,0,18-8.057,18-18
		C35.958,8.04,27.901-0.018,17.958-0.018L17.958-0.018z"/>
</g>
</svg>
