<?xml version="1.0" encoding="utf-8"?>
<!-- Generator: Adobe Illustrator 17.0.0, SVG Export Plug-In . SVG Version: 6.00 Build 0)  -->
<!DOCTYPE svg PUBLIC "-//W3C//DTD SVG 1.1//EN" "http://www.w3.org/Graphics/SVG/1.1/DTD/svg11.dtd">
<svg version="1.1" id="Слой_1" xmlns="http://www.w3.org/2000/svg" xmlns:xlink="http://www.w3.org/1999/xlink" x="0px" y="0px"
	 width="36px" height="36px" viewBox="-0.042 0 36 36" enable-background="new -0.042 0 36 36" xml:space="preserve">
<g id="netherland">
	<path fill="#FEFEFE" d="M-0.038,12.002c11.997,0,23.995,0,35.992,0c0,3.999,0,7.997,0,11.996c-11.997,0-23.995,0-35.992,0
		C-0.038,19.999-0.038,16-0.038,12.002z"/>
	<path fill="#AE1C28" d="M17.987,0.928c9.429,0,17.1,7.671,17.1,17.1s-7.671,17.1-17.1,17.1s-17.1-7.671-17.1-17.1
		S8.558,0.928,17.987,0.928 M17.987,0.028c-9.942,0-18,8.058-18,18c0,9.941,8.058,18,18,18c9.941,0,18-8.059,18-18
		C35.987,8.086,27.927,0.028,17.987,0.028L17.987,0.028z"/>
	<path fill="#21468A" d="M34.952,23.998c-11.31,0-22.62,0-33.93,0C3.427,30.832,9.827,35.766,17.428,36c0.372,0,0.744,0,1.117,0
		C26.145,35.766,32.546,30.832,34.952,23.998z"/>
	<g>
		<path fill="#AE1C28" d="M17.987,0.028c-7.825,0-14.464,5-16.944,11.974c11.296,0,22.592,0,33.889,0
			C32.45,5.029,25.811,0.028,17.987,0.028z"/>
	</g>
</g>
</svg>
