<?xml version="1.0" encoding="utf-8"?>
<!-- Generator: Adobe Illustrator 17.0.0, SVG Export Plug-In . SVG Version: 6.00 Build 0)  -->
<!DOCTYPE svg PUBLIC "-//W3C//DTD SVG 1.1//EN" "http://www.w3.org/Graphics/SVG/1.1/DTD/svg11.dtd">
<svg version="1.1" id="Слой_1" xmlns="http://www.w3.org/2000/svg" xmlns:xlink="http://www.w3.org/1999/xlink" x="0px" y="0px"
	 width="36px" height="36px" viewBox="-0.042 0 36 36" enable-background="new -0.042 0 36 36" xml:space="preserve">
<g>
	<path fill="#FFFFFF" d="M17.895,35.22c3.301,0,6.377-0.95,9-2.568c0-9.767,0-19.533,0-29.3c-2.623-1.617-5.699-2.568-9-2.568
		c-3.273,0-6.325,0.935-8.934,2.527c0,9.794,0,19.587,0,29.381C11.569,34.285,14.621,35.22,17.895,35.22z"/>
	<path fill="#002394" d="M0.677,18.002c0,6.22,3.327,11.664,8.283,14.691c0-9.794,0-19.587,0-29.381
		C4.004,6.338,0.677,11.781,0.677,18.002z"/>
	<path fill="#002394" d="M8.874,2.442c-0.238,0.138-0.475,0.28-0.706,0.429c0,0,0,0-0.001,0C8,2.979,7.838,3.094,7.675,3.207
		C7.6,3.259,7.522,3.309,7.447,3.362c-0.21,0.15-0.417,0.305-0.62,0.463c-0.174,0.136-0.342,0.278-0.511,0.42
		C6.253,4.299,6.186,4.35,6.123,4.404c0,0-0.001,0-0.001,0.001C5.941,4.563,5.764,4.726,5.588,4.891c0,0-0.001,0.001-0.001,0.001
		C5.354,5.11,5.126,5.331,4.905,5.562c0,0-0.001,0.001-0.001,0.001C4.752,5.721,4.607,5.886,4.461,6.051
		C4.46,6.051,4.459,6.052,4.459,6.053C4.234,6.306,4.011,6.56,3.8,6.826c0,0,0,0.001-0.001,0.001
		C3.68,6.978,3.568,7.135,3.454,7.289C3.289,7.51,3.132,7.736,2.976,7.962C2.925,8.038,2.868,8.109,2.818,8.186
		c0,0,0,0.001-0.001,0.001C2.734,8.315,2.659,8.449,2.579,8.579C2.47,8.756,2.37,8.939,2.265,9.118
		C2.164,9.29,2.057,9.458,1.964,9.635c0,0,0,0.001,0,0.001C1.929,9.703,1.9,9.773,1.866,9.84C1.865,9.842,1.864,9.844,1.863,9.846
		c-0.033,0.065-0.059,0.135-0.091,0.2c-0.2,0.404-0.393,0.812-0.563,1.233c-0.012,0.03-0.021,0.063-0.033,0.093
		c-0.378,0.949-0.682,1.936-0.895,2.956c0,0.001,0,0.001,0,0.002c-0.11,0.526-0.196,1.061-0.258,1.603
		c-0.078,0.68-0.128,1.367-0.128,2.068c0,0,0,0,0,0c0,0.703,0.05,1.393,0.129,2.075c0.247,2.153,0.88,4.185,1.819,6.038
		c0.04,0.08,0.075,0.163,0.116,0.241c0.189,0.36,0.398,0.706,0.61,1.051c0.08,0.13,0.155,0.264,0.238,0.392
		c0.203,0.312,0.422,0.612,0.643,0.91c0.11,0.149,0.218,0.3,0.333,0.445c0.218,0.275,0.448,0.54,0.68,0.802
		c0.137,0.153,0.272,0.307,0.414,0.456c0.232,0.243,0.473,0.478,0.718,0.708c0.16,0.15,0.322,0.299,0.488,0.443
		c0.245,0.214,0.497,0.422,0.754,0.622c0.182,0.142,0.367,0.279,0.554,0.414c0.259,0.187,0.521,0.369,0.789,0.541
		c0.201,0.129,0.406,0.25,0.612,0.372c0.057,0.034,0.112,0.07,0.17,0.103c0-0.003,0-0.005,0-0.008c0-0.305,0-0.609,0-0.914
		c-4.957-3.026-8.283-8.47-8.283-14.691c0-6.22,3.327-11.664,8.283-14.69c0-0.306,0-0.612,0-0.918c0-0.001,0-0.003,0-0.004
		C8.931,2.406,8.903,2.425,8.874,2.442z"/>
	<path fill="#EC2939" d="M35.112,18.002c0-6.193-3.297-11.616-8.217-14.65c0,9.767,0,19.533,0,29.3
		C31.815,29.618,35.112,24.194,35.112,18.002z"/>
	<path fill="#EC2939" d="M26.895,2.429c-0.142-0.082-0.276-0.177-0.42-0.255c-2.55-1.385-5.473-2.173-8.58-2.173
		c-0.6,0-1.193,0.032-1.778,0.09c-0.198,0.019-0.391,0.057-0.587,0.083c-0.383,0.05-0.766,0.1-1.141,0.174
		c-0.233,0.046-0.46,0.11-0.69,0.165c-0.328,0.078-0.656,0.155-0.977,0.251c-0.245,0.074-0.484,0.162-0.724,0.246
		c-0.294,0.102-0.587,0.203-0.874,0.32c-0.248,0.101-0.49,0.214-0.733,0.326c-0.265,0.122-0.53,0.245-0.788,0.38
		C9.508,2.085,9.408,2.123,9.315,2.174C9.193,2.24,9.081,2.321,8.961,2.389c0,0.001,0,0.003,0,0.004c0,0.306,0,0.612,0,0.918
		c2.609-1.593,5.661-2.527,8.934-2.527c3.301,0,6.377,0.95,9,2.568c4.92,3.034,8.217,8.457,8.217,14.65
		c0,6.193-3.297,11.616-8.217,14.651c-2.623,1.617-5.699,2.568-9,2.568c-3.273,0-6.325-0.935-8.934-2.528c0,0.305,0,0.609,0,0.914
		c0,0.003,0,0.005,0,0.008c0.216,0.124,0.433,0.245,0.654,0.36c0.217,0.113,0.44,0.215,0.663,0.319
		c0.283,0.133,0.566,0.266,0.858,0.385c0.231,0.094,0.468,0.173,0.703,0.257c0.296,0.106,0.59,0.216,0.892,0.306
		c0.24,0.072,0.486,0.126,0.73,0.188c0.31,0.079,0.617,0.164,0.933,0.227c0.235,0.046,0.477,0.072,0.716,0.109
		c0.709,0.11,1.43,0.181,2.163,0.206c0.208,0.007,0.412,0.031,0.621,0.031c0.081,0,0.16-0.011,0.241-0.012
		c0.566-0.008,1.127-0.034,1.679-0.093c0.026-0.003,0.051-0.009,0.077-0.012c0.576-0.064,1.146-0.151,1.704-0.268
		c0.008-0.002,0.015-0.004,0.023-0.006c1.741-0.367,3.39-0.983,4.906-1.813c0.002-0.001,0.004-0.002,0.005-0.003
		c0.125-0.068,0.24-0.15,0.363-0.221c0.375-0.217,0.749-0.435,1.107-0.678c0.018-0.012,0.034-0.027,0.052-0.039
		c0.457-0.313,0.9-0.644,1.325-0.996c0.038-0.031,0.071-0.067,0.109-0.099c0.401-0.338,0.791-0.689,1.161-1.06
		c0.068-0.068,0.127-0.144,0.193-0.213c0.332-0.344,0.658-0.693,0.962-1.062c0.085-0.103,0.158-0.216,0.241-0.322
		c0.272-0.346,0.543-0.694,0.79-1.06c0.1-0.149,0.184-0.309,0.28-0.461c0.212-0.336,0.427-0.669,0.617-1.019
		c0.113-0.208,0.204-0.428,0.308-0.641c0.152-0.308,0.312-0.611,0.446-0.929c0.112-0.265,0.199-0.543,0.298-0.815
		c0.102-0.278,0.216-0.551,0.305-0.835c0.101-0.324,0.173-0.661,0.255-0.993c0.061-0.244,0.136-0.482,0.187-0.729
		c0.088-0.432,0.144-0.875,0.201-1.318c0.02-0.157,0.055-0.309,0.071-0.466c0.061-0.604,0.093-1.218,0.093-1.838c0,0,0,0,0,0
		C35.895,11.343,32.27,5.543,26.895,2.429z"/>
</g>
</svg>
