<?xml version="1.0" encoding="utf-8"?>
<!-- Generator: Adobe Illustrator 18.1.0, SVG Export Plug-In . SVG Version: 6.00 Build 0)  -->
<svg version="1.1" xmlns="http://www.w3.org/2000/svg" xmlns:xlink="http://www.w3.org/1999/xlink" x="0px" y="0px"
	 viewBox="-12 21 24 24" enable-background="new -12 21 24 24" xml:space="preserve">
<g id="Layer_1" display="none">
	<g display="inline">
		<path d="M5,43.6h-15.2c-0.4,0-0.7,0.3-0.7,0.7c0,0.4,0.3,0.7,0.7,0.7H5c0.4,0,0.7-0.3,0.7-0.7C5.7,43.9,5.4,43.6,5,43.6z"/>
		<path d="M8.7,29.8h-20c-0.4,0-0.7,0.3-0.7,0.7v1.8c0,5.4,4.2,9.8,9.4,9.8c4.1,0,7.6-2.8,8.9-6.6c0.6,0.7,1.5,1.1,2.4,1.1
			c1.8,0,3.3-1.6,3.3-3.5C12,31.3,10.5,29.8,8.7,29.8z M5.4,32.3c0,4.6-3.6,8.4-8,8.4s-8-3.7-8-8.4v-1.1h16V32.3z M8.7,35.2
			c-1,0-1.9-0.9-1.9-2v-0.9v-1.1h1.9c1,0,1.9,0.9,1.9,2S9.7,35.2,8.7,35.2z"/>
		<path d="M-5.2,25.1c-0.2,0.3-0.2,0.7,0,1c0.1,0.1,0.3,0.2,0.5,0.2s0.3-0.1,0.5-0.2c0.8-0.8,0.8-2.1,0-2.9c-0.2-0.3-0.2-0.7,0-0.9
			c0.2-0.3,0.2-0.7,0-1s-0.7-0.3-0.9,0c-0.8,0.8-0.8,2.1,0,2.9C-4.9,24.4-4.9,24.8-5.2,25.1z"/>
	</g>
	<path display="inline" d="M-1.1,25.1c-0.2,0.3-0.2,0.7,0,1c0.1,0.1,0.3,0.2,0.5,0.2s0.3-0.1,0.5-0.2c0.8-0.8,0.8-2.1,0-2.9
		c-0.2-0.3-0.2-0.7,0-0.9c0.2-0.3,0.2-0.7,0-1s-0.7-0.3-0.9,0c-0.8,0.8-0.8,2.1,0,2.9C-0.8,24.4-0.8,24.8-1.1,25.1z"/>
</g>
<g id="Layer_2">
	<g>
		<path fill="#4fa5f9" d="M8.5,31c1.4,0,2.5,1.1,2.5,2.5S9.9,36,8.5,36S6,34.9,6,33.5V31H8.5 M8.5,30C7.6,30,5,30,5,30s0,2.5,0,3.5
			C5,35.4,6.6,37,8.5,37s3.5-1.6,3.5-3.5S10.4,30,8.5,30L8.5,30z"/>
	</g>
	<g>
		<path fill="#4fa5f9" d="M5,31v1.9C5,37.4,1.4,41-3,41s-8-3.6-8-8.1V31H5 M6,30h-18v2.9c0,5,4,9.1,9,9.1s9-4.1,9-9.1V30L6,30z"/>
	</g>
	<g>
		<rect x="-12" y="44" fill="#4fa5f9" width="18" height="1"/>
	</g>
	<g>
		<g>
			<path fill="none" stroke="#4fa5f9" stroke-width="0.9933" stroke-miterlimit="10" d="M-6.1,27.4c0.8,0.1,1.6-0.4,1.7-1.2
				c0.1-0.8-0.4-1.6-1.2-1.7"/>
			<path fill="none" stroke="#4fa5f9" stroke-width="0.9933" stroke-miterlimit="10" d="M-5.1,21.5c-0.8-0.1-1.6,0.4-1.7,1.2
				c-0.1,0.8,0.4,1.6,1.2,1.7"/>
		</g>
		<g>
			<path fill="none" stroke="#4fa5f9" stroke-width="0.9933" stroke-miterlimit="10" d="M-0.9,27.4c0.8,0.1,1.6-0.4,1.7-1.2
				c0.1-0.8-0.4-1.6-1.2-1.7"/>
			<path fill="none" stroke="#4fa5f9" stroke-width="0.9933" stroke-miterlimit="10" d="M0.1,21.5c-0.8-0.1-1.6,0.4-1.7,1.2
				c-0.1,0.8,0.4,1.6,1.2,1.7"/>
		</g>
	</g>
</g>
</svg>
