<?xml version="1.0" encoding="utf-8"?>
<!-- Generator: Adobe Illustrator 18.1.0, SVG Export Plug-In . SVG Version: 6.00 Build 0)  -->
<svg version="1.1" xmlns="http://www.w3.org/2000/svg" xmlns:xlink="http://www.w3.org/1999/xlink" x="0px" y="0px"
	 viewBox="0 0 84 18" enable-background="new 0 0 84 18" xml:space="preserve">
<symbol  id="Logo_5" viewBox="-1247.3 -296.3 2494.7 592.7">
	<g>
		<g id="Shape_5_copy_6_7_">
			<g>
				<path fill="#16BAF5" d="M-1121.6,101.3l-96.8,44.1c-16,7.4-28.9-0.3-28.9-17.3V-64.2c0-22.6,13-36.8,28.9-44.2l111.2-49.3
					L-1121.6,101.3z"/>
			</g>
		</g>
		<g id="Shape_5_copy_6_5_">
			<g>
				<path fill="#D1600C" d="M-1016.1,2.7l-88.2,18.8c-11.6,5.2-19.7,0.4-19.7-11.5v-142.2c0.1-22.1,8.1-22,19.7-27.2
					c0,0,39-12.4,64.7-20.7c8.5-2.7,23.6,1.1,23.6,16.2C-1016.1-115-1016.1,2.7-1016.1,2.7z"/>
			</g>
		</g>
		<g id="Shape_5_copy_3_">
			<g>
				<path fill="#FFA62A" d="M-907.2,232.6l-185.4-81.4c-22.3-10.1-31.4-24.1-31.4-38.8v-252.7c0,11.7,12.6,16.7,33.6,26.6
					l183.2,74.8c16.5,6.5,29.8,21.8,29.8,44V218C-877.3,232.8-890.7,239.1-907.2,232.6z"/>
			</g>
		</g>
	</g>
	<text transform="matrix(1 0 0 -1 -854.6982 -178.6201)"><tspan x="0" y="0" fill="#8C8C8C" font-family="'NeoSansStd-Regular'" font-size="545" letter-spacing="8">L</tspan><tspan x="288.8" y="0" fill="#8C8C8C" font-family="'NeoSansStd-Regular'" font-size="545" letter-spacing="-9">i</tspan><tspan x="413.6" y="0" fill="#8C8C8C" font-family="'NeoSansStd-Regular'" font-size="545" letter-spacing="-11">n</tspan><tspan x="705.8" y="0" fill="#8C8C8C" font-family="'NeoSansStd-Regular'" font-size="545" letter-spacing="-6">g</tspan><tspan x="1003.9" y="0" fill="#8C8C8C" font-family="'NeoSansStd-Regular'" font-size="545" letter-spacing="-10">u</tspan><tspan x="1297.1" y="0" fill="#8C8C8C" font-family="'NeoSansStd-Regular'" font-size="545" letter-spacing="104">a</tspan><tspan x="1684.6" y="0" fill="#8C8C8C" font-family="'NeoSansStd-Regular'" font-size="545" letter-spacing="-6">l</tspan><tspan x="1811" y="0" fill="#8C8C8C" font-family="'NeoSansStd-Regular'" font-size="545">y</tspan></text>
	<path fill="#F9A52C" d="M802-126.5c0,5.5-4.5,10-10,10h-28c-5.5,0-10-4.5-10-10v-42.1c0-5.5,4.5-10,10-10h28c5.5,0,10,4.5,10,10
		V-126.5z"/>
</symbol>
<g id="Isolation_Mode" display="none">
	<g display="inline">
		
			<use xlink:href="#Logo_5"  width="2494.7" height="592.7" id="XMLID_60_" x="-1247.3" y="-296.3" transform="matrix(3.374482e-002 0 0 -3.374482e-002 42.0911 7.9343)" overflow="visible"/>
	</g>
</g>
<g id="Isolation_Mode_copy">
	<g>
		<g id="XMLID_1_">
			<g>
				<g id="Shape_5_copy_6_3_">
					<g>
						<path fill="#4FA5F9" d="M4.2,4.5L1,3C0.4,2.8,0,3,0,3.6v6.5c0,0.8,0.4,1.2,1,1.5l3.8,1.7L4.2,4.5z"/>
					</g>
				</g>
				<g id="Shape_5_copy_6_1_">
					<g>
						<path fill="#EE5500" d="M4.8,7.2C4.4,7,4.2,7.2,4.2,7.6v4.8c0,0.7,0.3,0.7,0.7,0.9c0,0,1.3,0.4,2.2,0.7c0.3,0.1,0.8,0,0.8-0.5
							c0-1.7,0-5.6,0-5.6L4.8,7.2z"/>
					</g>
				</g>
				<g id="Shape_5_copy_1_">
					<g>
						<path fill="#F08600" d="M11.5,0.1L5.2,2.8C4.5,3.2,4.2,3.6,4.2,4.1v8.5c0-0.4,0.4-0.6,1.1-0.9l6.2-2.5c0.6-0.2,1-0.7,1-1.5
							V0.6C12.5,0.1,12-0.1,11.5,0.1z"/>
					</g>
				</g>
			</g>
			<g>
				<path fill="#263447" d="M22.2,13.9c-0.5,0.1-1.9,0.2-3.6,0.2c-2,0-3.9-0.4-3.9-3.4v-10c0-0.2,0.2-0.4,0.4-0.4H16
					c0.2,0,0.4,0.2,0.4,0.4v10c0,1.4,0.3,1.9,2.3,1.9h3.5c0.1,0,0.2,0.1,0.2,0.2v0.9C22.4,13.8,22.3,13.9,22.2,13.9z"/>
				<path fill="#263447" d="M25.7,2.2h-0.9c-0.2,0-0.4-0.2-0.4-0.4V0.4c0-0.2,0.2-0.4,0.4-0.4h0.9c0.2,0,0.4,0.2,0.4,0.4v1.5
					C26.1,2.1,25.9,2.2,25.7,2.2z M25.7,14h-0.9c-0.2,0-0.4-0.2-0.4-0.4V4.2c0-0.2,0.2-0.4,0.4-0.4h0.9c0.2,0,0.4,0.2,0.4,0.4v9.4
					C26.1,13.8,25.9,14,25.7,14z"/>
				<path fill="#263447" d="M35.8,14h-0.9c-0.2,0-0.4-0.2-0.4-0.4v-6c0-1.9-0.6-2.4-2-2.4c-0.8,0-1.6,0.3-2.5,0.7v7.8
					c0,0.2-0.2,0.4-0.4,0.4h-0.9c-0.2,0-0.3-0.2-0.3-0.4V4.2c0-0.2,0.1-0.4,0.3-0.4h0.9c0.2,0,0.3,0.2,0.3,0.4v0.3
					c1-0.6,1.8-0.8,2.9-0.8c2.2,0,3.2,1.4,3.2,3.8v6C36.2,13.8,36,14,35.8,14z"/>
				<path fill="#263447" d="M46.4,5.1l-0.7,0.1c0.3,0.3,0.6,0.9,0.6,1.9v0.1c0,2-1.3,3.1-4.1,3.1c-1,0-1.6-0.1-2.1-0.4
					c-0.3,0.1-0.5,0.3-0.5,0.6c0,0.3,0.1,0.5,0.6,0.6l2.7,0.7c1.8,0.5,3.5,1,3.5,2.7v0.1c0,1.8-1.2,2.8-4.2,2.8
					c-2.9,0-4.2-1.1-4.2-2.9v-0.2c0-1,0.6-1.9,1.2-2.3l-0.1-0.1c-0.6-0.3-0.8-0.9-0.8-1.4v0c0-0.5,0.2-1,0.8-1.3
					c-0.6-0.5-0.8-1.2-0.8-2.1V7.1c0-1.6,0.9-3.3,4.1-3.3h4c0.2,0,0.4,0.2,0.4,0.4v0.5C46.7,5,46.6,5,46.4,5.1z M44.9,14.6
					c0-0.7-0.6-1-2.2-1.4l-2.1-0.5c-0.5,0.5-0.9,0.9-0.9,1.9v0.2c0,1,0.6,1.7,2.6,1.7c2.1,0,2.6-0.6,2.6-1.6V14.6z M44.7,7.1
					c0-1.1-0.5-2-2.5-2c-2.1,0-2.5,0.9-2.5,2v0.1c0,0.8,0.4,1.9,2.5,1.9c2,0,2.5-0.8,2.5-1.9V7.1z"/>
				<path fill="#263447" d="M55.8,14h-0.9c-0.2,0-0.3-0.2-0.3-0.4v-0.3c-1,0.6-1.8,0.8-2.9,0.8c-2.2,0-3.2-1.4-3.2-3.8v-6
					c0-0.2,0.2-0.4,0.4-0.4h0.9C49.8,3.8,50,4,50,4.2v6c0,1.9,0.6,2.4,2,2.4c0.8,0,1.6-0.3,2.5-0.7V4.2c0-0.2,0.2-0.4,0.4-0.4h0.9
					c0.2,0,0.3,0.2,0.3,0.4v9.4C56.1,13.8,56,14,55.8,14z"/>
				<path fill="#263447" d="M64.9,14h-0.8c-0.2,0-0.4-0.2-0.4-0.4v-0.4c-0.9,0.5-1.8,0.9-2.8,0.9c-1.6,0-3-0.7-3-3v-0.2
					c0-2,1.2-3,4.4-3h1.4V7.2c0-1.5-0.5-2.1-2-2.1c-1.2,0-2.1,0.1-2.8,0.1c0,0-0.1,0-0.1,0c-0.2,0-0.3-0.1-0.3-0.3V4.3
					c0-0.2,0.1-0.3,0.4-0.3c0.8-0.1,1.6-0.2,2.8-0.2c2.6,0,3.6,1.3,3.6,3.5v6.4C65.3,13.8,65.1,14,64.9,14z M63.7,9.1h-1.4
					c-2.2,0-2.8,0.5-2.8,1.8v0.2c0,1.3,0.6,1.7,1.7,1.7c0.8,0,1.6-0.3,2.5-0.7V9.1z"/>
				<path fill="#263447" d="M72.8,14h-1c-0.2,0-0.3-0.2-0.3-0.4V0.5c0-0.2,0.1-0.3,0.3-0.3h1c0.2,0,0.3,0.1,0.3,0.3v13.1
					C73.1,13.8,73,14,72.8,14z"/>
				<path fill="#263447" d="M83.4,4.3l-3,10.6c-0.6,2-1.3,2.7-3.4,2.7c-0.5,0-1.2-0.1-1.5-0.2c-0.2-0.1-0.4-0.1-0.4-0.3v-0.7
					c0-0.2,0.1-0.3,0.3-0.3c0,0,0,0,0.1,0c0.4,0,1.2,0.1,1.6,0.1c1,0,1.5-0.3,1.8-1.6l0.2-0.8h-0.3c-0.6,0-1-0.1-1.4-1.3l-2.4-8.4
					c0,0,0-0.1,0-0.1c0-0.2,0.1-0.3,0.3-0.3h1c0.1,0,0.3,0.1,0.3,0.3l2.2,8c0.1,0.4,0.2,0.4,0.3,0.4h0.3l2.2-8.4
					c0-0.1,0.2-0.3,0.3-0.3h1c0.2,0,0.3,0.1,0.3,0.3C83.5,4.2,83.5,4.3,83.4,4.3z"/>
			</g>
			<path fill="#263447" d="M69.2,12.2c0-0.2-0.2-0.3-0.3-0.3h-0.9c-0.2,0-0.3,0.2-0.3,0.3v1.4c0,0.2,0.2,0.3,0.3,0.3h0.9
				c0.2,0,0.3-0.2,0.3-0.3V12.2z"/>
		</g>
	</g>
</g>
<g id="Isolation_Mode_copy_2">
	<g>
		<g id="XMLID_2_">
			<g>
				<g id="Shape_5_copy_6_11_">
					<g>
						<path fill="#4FA5F9" d="M4.2,4.5L1,3C0.4,2.8,0,3,0,3.6v6.5c0,0.8,0.4,1.2,1,1.5l3.8,1.7L4.2,4.5z"/>
					</g>
				</g>
				<g id="Shape_5_copy_6_9_">
					<g>
						<path fill="#EE5500" d="M4.8,7.2C4.4,7,4.2,7.2,4.2,7.6v4.8c0,0.7,0.3,0.7,0.7,0.9c0,0,1.3,0.4,2.2,0.7c0.3,0.1,0.8,0,0.8-0.5
							c0-1.7,0-5.6,0-5.6L4.8,7.2z"/>
					</g>
				</g>
				<g id="Shape_5_copy_5_">
					<g>
						<path fill="#F08600" d="M11.5,0.1L5.2,2.8C4.5,3.2,4.2,3.6,4.2,4.1v8.5c0-0.4,0.4-0.6,1.1-0.9l6.2-2.5c0.6-0.2,1-0.7,1-1.5
							V0.6C12.5,0.1,12-0.1,11.5,0.1z"/>
					</g>
				</g>
			</g>
			<g>
				<path fill="#263447" d="M22.2,13.9c-0.5,0.1-1.9,0.2-3.6,0.2c-2,0-3.9-0.4-3.9-3.4v-10c0-0.2,0.2-0.4,0.4-0.4H16
					c0.2,0,0.4,0.2,0.4,0.4v10c0,1.4,0.3,1.9,2.3,1.9h3.5c0.1,0,0.2,0.1,0.2,0.2v0.9C22.4,13.8,22.3,13.9,22.2,13.9z"/>
				<path fill="#263447" d="M25.7,2.2h-0.9c-0.2,0-0.4-0.2-0.4-0.4V0.4c0-0.2,0.2-0.4,0.4-0.4h0.9c0.2,0,0.4,0.2,0.4,0.4v1.5
					C26.1,2.1,25.9,2.2,25.7,2.2z M25.7,14h-0.9c-0.2,0-0.4-0.2-0.4-0.4V4.2c0-0.2,0.2-0.4,0.4-0.4h0.9c0.2,0,0.4,0.2,0.4,0.4v9.4
					C26.1,13.8,25.9,14,25.7,14z"/>
				<path fill="#263447" d="M35.8,14h-0.9c-0.2,0-0.4-0.2-0.4-0.4v-6c0-1.9-0.6-2.4-2-2.4c-0.8,0-1.6,0.3-2.5,0.7v7.8
					c0,0.2-0.2,0.4-0.4,0.4h-0.9c-0.2,0-0.3-0.2-0.3-0.4V4.2c0-0.2,0.1-0.4,0.3-0.4h0.9c0.2,0,0.3,0.2,0.3,0.4v0.3
					c1-0.6,1.8-0.8,2.9-0.8c2.2,0,3.2,1.4,3.2,3.8v6C36.2,13.8,36,14,35.8,14z"/>
				<path fill="#263447" d="M46.4,5.1l-0.7,0.1c0.3,0.3,0.6,0.9,0.6,1.9v0.1c0,2-1.3,3.1-4.1,3.1c-1,0-1.6-0.1-2.1-0.4
					c-0.3,0.1-0.5,0.3-0.5,0.6c0,0.3,0.1,0.5,0.6,0.6l2.7,0.7c1.8,0.5,3.5,1,3.5,2.7v0.1c0,1.8-1.2,2.8-4.2,2.8
					c-2.9,0-4.2-1.1-4.2-2.9v-0.2c0-1,0.6-1.9,1.2-2.3l-0.1-0.1c-0.6-0.3-0.8-0.9-0.8-1.4v0c0-0.5,0.2-1,0.8-1.3
					c-0.6-0.5-0.8-1.2-0.8-2.1V7.1c0-1.6,0.9-3.3,4.1-3.3h4c0.2,0,0.4,0.2,0.4,0.4v0.5C46.7,5,46.6,5,46.4,5.1z M44.9,14.6
					c0-0.7-0.6-1-2.2-1.4l-2.1-0.5c-0.5,0.5-0.9,0.9-0.9,1.9v0.2c0,1,0.6,1.7,2.6,1.7c2.1,0,2.6-0.6,2.6-1.6V14.6z M44.7,7.1
					c0-1.1-0.5-2-2.5-2c-2.1,0-2.5,0.9-2.5,2v0.1c0,0.8,0.4,1.9,2.5,1.9c2,0,2.5-0.8,2.5-1.9V7.1z"/>
				<path fill="#263447" d="M55.8,14h-0.9c-0.2,0-0.3-0.2-0.3-0.4v-0.3c-1,0.6-1.8,0.8-2.9,0.8c-2.2,0-3.2-1.4-3.2-3.8v-6
					c0-0.2,0.2-0.4,0.4-0.4h0.9C49.8,3.8,50,4,50,4.2v6c0,1.9,0.6,2.4,2,2.4c0.8,0,1.6-0.3,2.5-0.7V4.2c0-0.2,0.2-0.4,0.4-0.4h0.9
					c0.2,0,0.3,0.2,0.3,0.4v9.4C56.1,13.8,56,14,55.8,14z"/>
				<path fill="#263447" d="M64.9,14h-0.8c-0.2,0-0.4-0.2-0.4-0.4v-0.4c-0.9,0.5-1.8,0.9-2.8,0.9c-1.6,0-3-0.7-3-3v-0.2
					c0-2,1.2-3,4.4-3h1.4V7.2c0-1.5-0.5-2.1-2-2.1c-1.2,0-2.1,0.1-2.8,0.1c0,0-0.1,0-0.1,0c-0.2,0-0.3-0.1-0.3-0.3V4.3
					c0-0.2,0.1-0.3,0.4-0.3c0.8-0.1,1.6-0.2,2.8-0.2c2.6,0,3.6,1.3,3.6,3.5v6.4C65.3,13.8,65.1,14,64.9,14z M63.7,9.1h-1.4
					c-2.2,0-2.8,0.5-2.8,1.8v0.2c0,1.3,0.6,1.7,1.7,1.7c0.8,0,1.6-0.3,2.5-0.7V9.1z"/>
				<path fill="#263447" d="M72.8,14h-1c-0.2,0-0.3-0.2-0.3-0.4V0.5c0-0.2,0.1-0.3,0.3-0.3h1c0.2,0,0.3,0.1,0.3,0.3v13.1
					C73.1,13.8,73,14,72.8,14z"/>
				<path fill="#263447" d="M83.4,4.3l-3,10.6c-0.6,2-1.3,2.7-3.4,2.7c-0.5,0-1.2-0.1-1.5-0.2c-0.2-0.1-0.4-0.1-0.4-0.3v-0.7
					c0-0.2,0.1-0.3,0.3-0.3c0,0,0,0,0.1,0c0.4,0,1.2,0.1,1.6,0.1c1,0,1.5-0.3,1.8-1.6l0.2-0.8h-0.3c-0.6,0-1-0.1-1.4-1.3l-2.4-8.4
					c0,0,0-0.1,0-0.1c0-0.2,0.1-0.3,0.3-0.3h1c0.1,0,0.3,0.1,0.3,0.3l2.2,8c0.1,0.4,0.2,0.4,0.3,0.4h0.3l2.2-8.4
					c0-0.1,0.2-0.3,0.3-0.3h1c0.2,0,0.3,0.1,0.3,0.3C83.5,4.2,83.5,4.3,83.4,4.3z"/>
			</g>
			<path fill="#263447" d="M69.2,12.2c0-0.2-0.2-0.3-0.3-0.3h-0.9c-0.2,0-0.3,0.2-0.3,0.3v1.4c0,0.2,0.2,0.3,0.3,0.3h0.9
				c0.2,0,0.3-0.2,0.3-0.3V12.2z"/>
		</g>
	</g>
</g>
</svg>
